<svg t="1638150264191" class="icon" viewBox="0 0 1160 1024" version="1.1" xmlns="http://www.w3.org/2000/svg" p-id="1262" width="200" height="200"><path d="M525.789867 606.8224h79.872v350.890667h-79.872z" fill="#9A6F11" p-id="1263"></path><path d="M224.938667 201.659733a360.925867 360.925867 0 0 0-41.437867-2.6624v68.1984a8.328533 8.328533 0 0 1-13.448533 6.485334L33.450667 165.819733a8.328533 8.328533 0 0 1 0-13.1072l136.533333-107.7248a8.328533 8.328533 0 0 1 13.448533 6.485334l0.2048 68.266666a427.076267 427.076267 0 0 1 335.598934 164.522667c74.205867 95.095467 86.493867 207.803733 86.493866 322.56h-79.872c0-7.031467 0.887467-105.0624-6.9632-150.3232-7.918933-45.2608-33.109333-86.493867-61.986133-123.562667A346.112 346.112 0 0 0 351.982933 243.029333a346.5216 346.5216 0 0 0-127.044266-41.3696z" fill="#9A6F11" p-id="1264"></path><path d="M606.6176 606.8224h-79.872v350.890667h79.872z" fill="#9A6F11" p-id="1265"></path><path d="M907.4688 201.659733c13.858133-1.706667 27.648-2.525867 41.3696-2.6624v68.1984c0 6.894933 8.055467 10.717867 13.448533 6.485334l136.669867-107.861334a8.328533 8.328533 0 0 0 0-13.1072l-136.533333-107.7248a8.328533 8.328533 0 0 0-13.448534 6.485334l-0.2048 68.266666a427.076267 427.076267 0 0 0-335.598933 164.522667C538.965333 379.357867 526.677333 492.066133 526.677333 606.8224h79.872c0-7.031467-0.955733-105.0624 6.9632-150.3232 7.918933-45.2608 33.041067-86.493867 61.986134-123.562667a346.112 346.112 0 0 1 104.925866-89.9072 346.5216 346.5216 0 0 1 127.044267-41.3696z" fill="#9A6F11" p-id="1266"></path></svg>