<?xml version="1.0" standalone="no"?><!DOCTYPE svg PUBLIC "-//W3C//DTD SVG 1.1//EN" "http://www.w3.org/Graphics/SVG/1.1/DTD/svg11.dtd"><svg t="1636961889067" class="icon" viewBox="0 0 1024 1024" version="1.1" xmlns="http://www.w3.org/2000/svg" p-id="1345" xmlns:xlink="http://www.w3.org/1999/xlink" width="200" height="200"><defs><style type="text/css"></style></defs><path d="M23.272727 23.272727m46.545455 0l884.363636 0q46.545455 0 46.545455 46.545455l0 884.363636q0 46.545455-46.545455 46.545455l-884.363636 0q-46.545455 0-46.545455-46.545455l0-884.363636q0-46.545455 46.545455-46.545455Z" fill="#E3A322" p-id="1346"></path><path d="M495.476364 599.924364h54.458181v239.243636h-54.458181z" fill="#916504" p-id="1347"></path><path d="M290.350545 323.677091a246.085818 246.085818 0 0 0-28.206545-1.815273v46.498909a5.678545 5.678545 0 0 1-9.169455 4.421818l-93.184-73.541818a5.678545 5.678545 0 0 1 0-8.936727l93.09091-73.448727a5.678545 5.678545 0 0 1 9.169454 4.421818l0.139636 46.545454a291.188364 291.188364 0 0 1 228.817455 112.174546c50.594909 64.837818 58.973091 141.684364 58.973091 219.927273h-54.458182c0-4.794182 0.651636-71.633455-4.747636-102.493091-5.352727-30.859636-22.528-58.973091-42.263273-84.247273A235.985455 235.985455 0 0 0 377.018182 351.883636a236.264727 236.264727 0 0 0-86.574546-28.206545z" fill="#916504" p-id="1348"></path><path d="M550.632727 599.924364h-54.458182v239.243636h54.458182z" fill="#916504" p-id="1349"></path><path d="M755.758545 323.677091c9.448727-1.163636 18.804364-1.722182 28.206546-1.815273v46.498909c0 4.701091 5.445818 7.307636 9.169454 4.421818l93.137455-73.541818a5.678545 5.678545 0 0 0 0-8.936727l-93.090909-73.448727a5.678545 5.678545 0 0 0-9.169455 4.421818l-0.139636 46.545454a291.188364 291.188364 0 0 0-228.770909 112.174546c-50.641455 64.837818-58.973091 141.684364-58.973091 219.927273h54.458182c0-4.794182-0.651636-71.633455 4.701091-102.493091 5.399273-30.859636 22.574545-58.973091 42.263272-84.247273a235.985455 235.985455 0 0 1 71.58691-61.300364 236.264727 236.264727 0 0 1 86.574545-28.206545z" fill="#916504" p-id="1350"></path></svg>