<?xml version="1.0" standalone="no"?><!DOCTYPE svg PUBLIC "-//W3C//DTD SVG 1.1//EN" "http://www.w3.org/Graphics/SVG/1.1/DTD/svg11.dtd"><svg t="1626662521401" class="icon" viewBox="0 0 2986 1024" version="1.1" xmlns="http://www.w3.org/2000/svg" p-id="1331" data-spm-anchor-id="a313x.7781069.0.i2" xmlns:xlink="http://www.w3.org/1999/xlink" width="583.203125" height="200"><defs><style type="text/css"></style></defs><path d="M259.114667 571.690667c46.421333 0 86.314667-11.050667 119.722666-33.066667 33.408-22.058667 56.362667-50.218667 68.906667-84.565333L363.52 405.333333c-10.666667 23.210667-24.917333 41.301333-42.794667 54.314667-17.877333 12.970667-39.082667 19.456-63.701333 19.456a120.618667 120.618667 0 0 1-69.546667-20.864c-20.48-13.909333-36.565333-33.877333-48.384-59.861333-11.861333-25.984-17.749333-56.149333-17.749333-90.453334 0-34.346667 5.888-64.426667 17.749333-90.154666 11.818667-25.728 27.946667-45.568 48.341334-59.477334a120.618667 120.618667 0 0 1 69.589333-20.906666c24.618667 0 45.824 6.528 63.701333 19.498666 17.877333 13.013333 32.128 31.104 42.794667 54.272l84.224-48.682666c-12.544-34.346667-35.498667-62.549333-68.906667-84.565334-33.408-22.058667-73.301333-33.066667-119.722666-33.066666-44.970667 0-86.186667 10.922667-123.52 32.725333-37.333333 21.76-66.816 52.650667-88.362667 92.586667C25.6 209.962667 14.848 255.872 14.848 307.882667c0 51.968 10.922667 98.005333 32.725333 138.154666 21.76 40.106667 51.242667 71.082667 88.362667 92.885334 37.12 21.802667 78.208 32.725333 123.178667 32.725333z m342.442666-8.362667V33.706667H504.746667v529.621333H601.6z m253.994667 8.362667c32.469333 0 62.72-7.68 90.837333-22.997334a174.250667 174.250667 0 0 0 67.498667-66.133333c16.938667-28.714667 25.386667-61.866667 25.386667-99.498667 0-37.546667-8.448-70.741333-25.386667-99.498666a176.768 176.768 0 0 0-67.498667-66.474667 184.490667 184.490667 0 0 0-90.837333-23.296c-32.938667 0-63.573333 7.765333-91.861333 23.296a176.085333 176.085333 0 0 0-67.84 66.474667c-16.938667 28.757333-25.429333 61.952-25.429334 99.498666 0 37.589333 8.490667 70.784 25.429334 99.541334 16.938667 28.757333 39.552 50.773333 67.84 66.133333a190.037333 190.037333 0 0 0 91.861333 22.954667z m-0.682667-84.224c-24.149333 0-44.202667-9.386667-60.202666-28.16-16-18.816-24.021333-44.202667-24.021334-76.245334 0-32 8.021333-57.514667 24.021334-76.544 16-19.029333 36.053333-28.544 60.16-28.544 24.149333 0 44.117333 9.514667 59.904 28.586667 15.786667 18.986667 23.637333 44.501333 23.637333 76.501333s-7.893333 57.429333-23.637333 76.202667c-15.786667 18.773333-35.754667 28.202667-59.861334 28.202667z m379.306667 84.224c25.045333 0 47.317333-5.333333 66.773333-16 19.498667-10.666667 35.285333-26.922667 47.36-48.725334 1.834667 9.728 3.712 28.544 5.546667 56.362667h85.589333v-360.533333H1342.72v180.266666c0 32.512-7.168 57.770667-21.589333 75.861334a68.608 68.608 0 0 1-56.32 27.136c-42.709333 0-64.042667-33.152-64.042667-99.498667V202.837333h-96.768V418.56c0 50.133333 11.605333 88.149333 34.816 114.133333 23.210667 26.026667 54.997333 38.997333 95.36 38.997334z m437.76 0c23.637333 0 45.568-5.248 65.706667-15.658667a122.197333 122.197333 0 0 0 49.066666-46.976c1.408 9.258667 3.285333 27.349333 5.589334 54.272h84.906666V33.706667H1780.48v213.674666a122.112 122.112 0 0 0-47.658667-40.362666 141.568 141.568 0 0 0-60.928-13.226667c-29.696 0-56.832 7.424-81.408 22.272-24.576 14.848-44.330667 36.522667-59.136 65.066667-14.848 28.501333-22.272 62.506667-22.272 101.973333 0 38.954667 7.424 72.704 22.272 101.248 14.805333 28.501333 34.56 50.218667 59.136 65.066667a154.538667 154.538667 0 0 0 81.408 22.272z m22.229333-82.816c-25.514667 0-46.037333-9.514667-61.568-28.586667-15.530667-18.986667-23.338667-44.714667-23.338666-77.226667 0-32.426667 7.808-57.770667 23.338666-75.861333 15.530667-18.090667 36.053333-27.136 61.568-27.136 24.149333 0 44.544 8.490667 61.269334 25.429333 16.682667 16.938667 25.045333 42.794667 25.045333 77.568 0 35.285333-8.362667 61.738667-25.045333 79.36-16.725333 17.621333-37.12 26.453333-61.269334 26.453334z m382.805334 74.453333V53.888h-100.949334v509.44h100.949334z m216.405333 8.362667c24.149333 0 44.672-4.053333 61.610667-12.202667 16.938667-8.106667 30.72-20.48 41.386666-37.205333 1.408 6.485333 2.474667 14.037333 3.157334 22.613333 0.682667 8.533333 1.28 14.72 1.706666 18.432h81.493334V353.152c0-51.029333-13.738667-90.368-41.088-117.973333-27.392-27.605333-65.408-41.386667-114.133334-41.386667-36.181333 0-67.754667 7.765333-94.677333 23.296a145.365333 145.365333 0 0 0-59.818667 63.701333l68.864 39.68c16.256-31.573333 42.026667-47.36 77.269334-47.36 44.074667 0 66.816 26.666667 68.181333 80.042667a255.872 255.872 0 0 0-77.226667-12.544c-27.861333 0-53.333333 4.906667-76.544 14.634667-23.210667 9.728-41.642667 23.552-55.338666 41.386666-13.653333 17.92-20.522667 38.869333-20.522667 63.018667 0 23.168 6.016 43.264 18.090667 60.16 12.074667 16.938667 28.416 29.866667 49.066666 38.656a172.8 172.8 0 0 0 68.522667 13.226667z m15.36-73.813334c-15.786667 0-28.672-3.669333-38.656-11.093333-9.984-7.424-14.933333-17.877333-14.933333-31.317333 0-14.848 6.229333-26.325333 18.773333-34.474667 12.501333-8.106667 30.165333-12.16 52.906667-12.16 17.152 0 37.333333 2.773333 60.501333 8.362667v13.909333c0 20.906667-7.850667 37.205333-23.637333 49.066667-15.786667 11.818667-34.133333 17.749333-54.997334 17.749333z m487.125333 73.813334c46.421333 0 86.314667-11.050667 119.722667-33.066667 33.408-22.058667 56.362667-50.218667 68.906667-84.565333L2900.266667 405.333333c-10.666667 23.210667-24.96 41.301333-42.794667 54.314667-17.877333 12.970667-39.082667 19.456-63.701333 19.456a120.618667 120.618667 0 0 1-69.546667-20.864c-20.48-13.909333-36.565333-33.877333-48.384-59.861333-11.861333-25.984-17.749333-56.149333-17.749333-90.453334 0-34.346667 5.888-64.426667 17.749333-90.154666 11.818667-25.728 27.946667-45.568 48.341333-59.477334a120.618667 120.618667 0 0 1 69.589334-20.906666c24.618667 0 45.824 6.528 63.701333 19.498666 17.834667 13.013333 32.128 31.104 42.794667 54.272l84.224-48.682666c-12.544-34.346667-35.498667-62.549333-68.906667-84.565334-33.408-22.058667-73.301333-33.066667-119.722667-33.066666-45.013333 0-86.186667 10.922667-123.52 32.725333-37.333333 21.76-66.816 52.650667-88.405333 92.586667-21.546667 39.850667-32.341333 85.76-32.341333 137.770666 0 51.968 10.922667 98.005333 32.725333 138.154667 21.76 40.106667 51.242667 71.082667 88.362667 92.885333 37.12 21.802667 78.165333 32.725333 123.178666 32.725334zM290.986667 1013.12v-21.376H191.658667v-20.010667h52.053333v-19.157333H191.573333v-24.106667h-24.618666v24.106667H114.346667c14.08-11.52 24.917333-22.912 32.597333-34.218667h64.341333c10.24 14.08 21.973333 26.026667 35.2 35.84 13.226667 9.898667 29.610667 19.285333 49.152 28.245334l10.965334-21.632a243.541333 243.541333 0 0 1-38.784-19.029334 137.173333 137.173333 0 0 1-28.032-23.424h62.72v-20.266666H255.146667v-84.906667h38.058666v-19.669333H255.146667v-19.456h-24.661334v19.456h-102.4v-19.456h-24.917333v19.456h-38.058667v19.712h38.058667v84.906666H56.362667v20.224h62.165333c-15.701333 17.152-37.973333 31.872-66.816 44.074667l10.922667 22.186667a291.968 291.968 0 0 0 51.2-31.744v18.858666h53.162666v20.010667H66.986667v21.333333h224z m-60.501334-183.765333h-102.4v-16.128h102.4v16.128z m0 34.517333h-102.4v-15.872h102.4v15.872z m0 34.218667h-102.4v-15.872h102.4v15.872z m498.005334 122.410666v-109.824h-23.296v74.24h-30.933334v-91.221333h50.133334v-99.114667h-22.186667v75.050667h-27.946667v-99.968h-24.32v99.968h-27.136v-75.050667h-22.485333v99.114667h49.578667v91.221333h-30.122667v-73.685333h-22.997333v97.749333h108.416v11.52h23.296z m-149.504-16.981333V866.56h-42.154667c5.973333-15.36 11.392-32.597333 16.128-51.754667h35.84v-23.552h-94.976v23.552h34.773333c-3.84 16.810667-9.514667 34.133333-17.109333 52.053334-7.594667 17.877333-16.128 34.304-25.6 49.28l9.301333 24.32a218.453333 218.453333 0 0 0 15.616-22.4v85.418666h68.181334z m-21.632-23.296h-24.362667v-89.258667h24.32v89.258667zM988.501333 836.266667l18.090667-19.456c-7.68-7.850667-16.042667-16-25.173333-24.490667a364.544 364.544 0 0 0-22.485334-19.626667l-16.981333 17.834667c6.4 5.290667 14.250667 12.501333 23.552 21.632 9.344 9.130667 16.981333 17.152 23.04 24.106667z m35.626667 40.234666c15.701333-9.685333 26.666667-19.029333 32.981333-28.074666 6.314667-9.002667 9.429333-18.56 9.429334-28.586667v-15.914667h46.549333v38.101334c0 9.301333 2.304 15.658667 6.826667 19.157333 4.608 3.456 11.989333 5.205333 22.186666 5.205333h29.866667l3.285333-23.850666h-27.093333c-3.285333 0-5.717333-0.682667-7.253333-2.048-1.578667-1.365333-2.346667-3.968-2.346667-7.808V781.226667h-96.938667v27.648c0 7.68-0.853333 13.909333-2.56 18.773333a35.328 35.328 0 0 1-10.026666 13.952 152.746667 152.746667 0 0 1-22.186667 15.744l17.28 19.2z m-54.784 139.093334l4.394667-4.096 8.746666-8.234667c20.266667-16.597333 34.986667-28.842667 44.117334-36.693333l-11.264-21.888-29.269334 24.661333V856.746667h-59.136v23.552h34.218667v98.304a21.973333 21.973333 0 0 1-1.536 9.173333 33.237333 33.237333 0 0 1-6.4 8.106667l16.128 19.669333z m44.074667 6.570666c31.061333-11.690667 57.045333-24.618667 78.08-38.869333 19.712 14.08 44.629333 26.922667 74.709333 38.613333l11.264-24.661333c-27.733333-8.746667-49.92-18.432-66.56-29.013333 19.712-17.322667 34.517333-37.973333 44.373333-61.866667v-23.296h-138.581333v23.04h13.994667c9.685333 24.064 23.253333 44.416 40.789333 61.013333-18.261333 11.690667-41.728 22.485333-70.4 32.341334l12.373333 22.698666z m77.226666-68.992a137.813333 137.813333 0 0 1-34.218666-47.104h71.466666c-7.466667 17.365333-19.882667 33.066667-37.248 47.104z m380.245334-88.746666c9.685333-12.757333 18.261333-25.984 25.728-39.68h112.298666v-23.552h-100.522666c4.224-8.746667 8.064-17.962667 11.52-27.648l-23.296-4.906667c-4.693333 13.653333-10.837333 27.52-18.346667 41.472a290.816 290.816 0 0 1-25.728 39.850667l18.346667 14.506666z m-89.514667 157.184c6.4-15.488 11.264-29.098667 14.634667-40.789334 3.413333-11.690667 5.888-24.490667 7.509333-38.442666 1.664-13.994667 2.56-31.274667 2.773333-51.925334h22.698667v13.696c0 26.453333-1.194667 51.328-3.541333 74.496-0.554667 5.674667-1.664 9.472-3.285334 11.52-1.664 1.962667-4.394667 2.986667-8.234666 2.986667a57.173333 57.173333 0 0 1-13.653334-1.92l4.352 23.04c4.394667 0.512 8.576 0.768 12.586667 0.768 9.856 0 17.066667-1.834667 21.504-5.589333 4.48-3.754667 7.168-10.24 8.106667-19.584 1.28-11.861333 2.304-31.018667 3.114666-57.514667 0.853333-26.453333 1.152-47.36 0.981334-62.72H1406.293333v-33.92h50.090667v-23.552h-27.648c-3.285333-13.866667-5.205333-21.76-5.76-23.552l-4.096-17.237333-24.106667 2.986666 1.664 6.058667c0.725333 3.413333 1.877333 8.533333 3.541334 15.189333 1.621333 6.656 2.901333 12.16 3.84 16.554667h-38.613334v23.552h18.901334V878.933333c0 21.717333-0.725333 39.850667-2.218667 54.357334-1.450667 14.506667-3.84 27.648-7.082667 39.424a290.048 290.048 0 0 1-14.250666 38.741333l20.821333 10.112z m160.170667-1.621334c12.032 0 22.741333-0.426667 32-1.365333a66.986667 66.986667 0 0 0 20.693333-4.394667 23.125333 23.125333 0 0 0 11.392-10.24c2.56-4.693333 4.181333-11.093333 4.906667-19.328l0.554666-6.314666 1.365334-13.653334-22.442667-5.504c0 3.669333-0.298667 8.405333-0.853333 14.250667a35.029333 35.029333 0 0 1-2.56 12.458667 12.885333 12.885333 0 0 1-6.826667 6.314666 54.186667 54.186667 0 0 1-14.421333 3.114667 260.309333 260.309333 0 0 1-24.362667 1.365333c-6.570667 0-14.677333-0.426667-24.362667-1.365333a36.693333 36.693333 0 0 1-12.074666-2.730667 10.624 10.624 0 0 1-5.333334-6.698666 53.930667 53.930667 0 0 1-1.493333-14.933334V905.813333l25.173333-7.125333v78.037333h21.930667v-84.053333l32-9.045333c0 15.530667-0.682667 28.672-2.133333 39.424-0.768 5.290667-1.962667 8.96-3.584 10.965333-1.664 2.005333-4.394667 2.986667-8.234667 2.986667a42.538667 42.538667 0 0 1-11.776-1.365334l4.394667 21.930667c5.845333 0.554667 11.690667 0.810667 17.493333 0.810667 8.106667 0 13.738667-1.834667 17.024-5.461334 3.285333-3.669333 5.461333-10.24 6.570667-19.712 0.896-7.125333 1.749333-19.498667 2.56-37.12 0.853333-17.621333 1.365333-32 1.536-43.093333l-55.893334 16.128v-35.072h-21.888v41.386667l-25.173333 7.381333v-21.077333h-22.186667v27.349333l-19.712 5.76 4.949334 21.333333 14.762666-4.096v66.261334c0 14.250667 2.645333 24.234667 7.936 29.994666s13.866667 9.173333 25.770667 10.24c9.301333 0.938667 20.053333 1.408 32.298667 1.408z m275.370666-10.965333l17.493334-8.192c13.184-6.229333 32.853333-14.890667 59.178666-26.026667l13.397334 30.378667 22.442666-10.112c-5.12-11.52-11.392-24.832-18.858666-39.978667a646.656 646.656 0 0 0-18.346667-35.029333l-20.821333 9.002667c2.176 4.010667 6.101333 11.946667 11.776 23.850666l-36.138667 16.128-10.965333 4.693334V911.786667h80.213333v-130.602667h-103.253333v190.293333a17.664 17.664 0 0 1-1.877334 8.490667 25.813333 25.813333 0 0 1-7.381333 7.68l13.141333 21.333333z m148.949334 11.52v-210.56h43.52v129.237333c0 6.186667-0.853333 10.752-2.56 13.653334-1.749333 2.986667-4.906667 4.394667-9.472 4.394666-7.125333 0-14.506667-0.725333-22.186667-2.176l4.693333 25.728c7.808 0.938667 17.066667 1.365333 27.605334 1.365334 9.344 0 16.085333-2.645333 20.266666-7.936 4.224-5.290667 6.314667-13.952 6.314667-26.026667V784.213333h-92.586667v236.330667h24.405334z m-73.130667-185.941333h-56.661333v-30.677334h56.661333v30.72z m0 54.485333h-56.661333v-32.298667h56.661333v32.298667z m402.986667 132.010667v-178.56c9.472-19.328 18.176-40.32 26.026666-62.976l-24.917333-7.936c-7.509333 23.552-17.152 46.933333-29.013333 70.229333-11.904 23.296-24.021333 42.325333-36.437334 57.088l12.032 27.136c9.301333-11.690667 18.346667-24.490667 27.136-38.357333v133.376h25.173334z m141.824-1.365334c7.68 0 14.378667-2.56 20.138666-7.552 5.76-5.034667 10.24-13.44 13.568-25.344 3.626667-12.032 6.570667-24.917333 8.746667-38.570666l-21.888-10.154667c-1.834667 9.514667-4.224 20.181333-7.125333 32.042667-2.005333 7.850667-4.010667 13.098667-6.016 15.744a9.813333 9.813333 0 0 1-7.424 4.266666 15.530667 15.530667 0 0 1-8.746667-2.773333 42.112 42.112 0 0 1-9.6-10.410667c-5.632-8.192-11.050667-20.693333-16.128-37.504a398.805333 398.805333 0 0 1-12.629333-61.610666l89.557333-8.192-1.92-24.917334-90.368 8.490667a1225.770667 1225.770667 0 0 1-2.986667-50.389333 1136.170667 1136.170667 0 0 1-1.109333-31.232h-26.282667l2.986667 53.418666c0.426667 8.021333 1.109333 18.133333 2.218667 30.378667l-55.04 5.205333 2.176 24.661334 55.594666-5.205334c6.4 52.736 17.152 90.154667 32.298667 112.213334 7.125333 9.898667 13.824 16.938667 20.138667 21.12a35.242667 35.242667 0 0 0 19.84 6.314666z m6.826666-186.197333l15.914667-18.645333c-4.565333-4.352-11.52-10.496-20.949333-18.346667-9.386667-7.850667-17.109333-14.122667-23.125334-18.901333l-14.506666 16.981333c5.845333 4.778667 13.184 11.136 22.016 19.2 8.874667 8.021333 15.786667 14.592 20.693333 19.712z m424.618667 186.709333c8.96 0 15.914667-1.28 20.821333-3.84a24.021333 24.021333 0 0 0 11.093334-12.842666c2.474667-6.016 4.437333-14.72 5.888-26.026667 3.84-30.464 6.314667-60.885333 7.381333-91.178667h-31.488l9.856-101.845333h-110.634667v24.106667h82.986667l-7.68 77.738666h-46.250667l6.570667-64.341333-24.362667-1.365333-9.344 90.069333h104.362667a542.549333 542.549333 0 0 1-6.058667 62.976c-1.450667 8.96-3.626667 15.018667-6.570666 18.218667-2.901333 3.2-8.106667 4.778667-15.573334 4.778666-8.789333 0-19.370667-0.64-31.786666-1.877333l-6.570667-0.554667 4.394667 24.064c13.482667 1.28 27.818667 1.92 42.965333 1.92z m-106.794667-13.653333v-139.392h-48.725333a383.573333 383.573333 0 0 0 16.725333-53.674667h39.125334v-24.917333h-95.573334v24.917333h31.232c-3.84 17.493333-9.386667 35.2-16.554666 52.992a293.76 293.76 0 0 1-22.869334 45.866667l8.746667 28.458667c6.229333-9.472 12.074667-18.901333 17.536-28.16v93.866666h70.4z m-22.698666-24.405333h-24.917334v-90.88h24.917334v90.88z m131.157333-18.602667v-23.808h-97.194667v23.808h97.194667z" fill="#FFFFFF" p-id="1332"></path></svg>