<?xml version="1.0" encoding="utf-8"?>
<!-- Generator: Adobe Illustrator 23.0.4, SVG Export Plug-In . SVG Version: 6.00 Build 0)  -->
<svg version="1.1" id="图层_1" xmlns="http://www.w3.org/2000/svg" xmlns:xlink="http://www.w3.org/1999/xlink" x="0px" y="0px"
	 viewBox="0 0 200 48" style="enable-background:new 0 0 200 48;" xml:space="preserve">
<style type="text/css">
	.st0{fill:url(#XMLID_2_);}
	.st1{fill:url(#XMLID_3_);}
	.st2{fill:url(#XMLID_4_);}
	.st3{fill:url(#XMLID_5_);}
	.st4{fill:url(#XMLID_6_);}
	.st5{fill:url(#XMLID_7_);}
	.st6{fill:url(#XMLID_8_);}
	.st7{fill:url(#XMLID_9_);}
	.st8{fill:url(#XMLID_10_);}
	.st9{fill:#FFFFFF;fill-opacity:0.8598;}
	.st10{clip-path:url(#SVGID_2_);fill:#FFFFFF;}
</style>
<title>laC-logo</title>
<g>
	<g id="XMLID_183_" transform="translate(0.200000, 5.000000)">
		
			<linearGradient id="XMLID_2_" gradientUnits="userSpaceOnUse" x1="-2450.9971" y1="481.8909" x2="-2449.9971" y2="481.8909" gradientTransform="matrix(20.355 0 0 -19.9077 49898.4414 9607.3389)">
			<stop  offset="0" style="stop-color:#7373A3"/>
			<stop  offset="1" style="stop-color:#80B8DA"/>
		</linearGradient>
		<path id="XMLID_192_" class="st0" d="M18.6,4c-3.5,0-6.6,1.8-8.5,4.6c-0.6,1-1.1,2-1.4,3.2c-0.1,0.4-0.2,0.8-0.2,1.2
			c0.2,0.8,0.6,1.5,1.2,2.1c0.9,0.1,1.8,0.4,2.6,1c-0.1-0.5-0.2-1-0.2-1.6c0-0.7,0.1-1.4,0.3-2.1c0.9-2.7,3.3-4.6,6.3-4.6
			c2.4,0,4.5,1.3,5.7,3.3c0.6,1,0.9,2.2,0.9,3.5c0,0.6-0.1,1.3-0.3,1.9c-0.5,1.7-1.6,3.1-3.1,4c-0.7,0.3-1.1,0.9-1.1,1.7
			c0,1,0.8,1.8,1.8,1.8c0.2,0,0.4,0,0.6-0.1c0.1,0,0.1,0,0.2-0.1c0,0,0.1,0,0.1-0.1c0,0,0.1,0,0.1-0.1c0.1,0,0.1-0.1,0.2-0.1
			c0,0,0.1,0,0.1-0.1c0.1,0,0.1-0.1,0.2-0.1c0,0,0.1,0,0.1-0.1c0.1-0.1,0.2-0.1,0.3-0.2c1.5-1.1,2.7-2.5,3.4-4.3
			c0.5-1.1,0.8-2.2,0.9-3.5c0-0.3,0-0.5,0-0.8C28.8,8.7,24.2,4,18.6,4z"/>
		
			<linearGradient id="XMLID_3_" gradientUnits="userSpaceOnUse" x1="-2439.677" y1="481.8909" x2="-2438.677" y2="481.8909" gradientTransform="matrix(18.6842 0 0 -19.9077 45593.5117 9607.3398)">
			<stop  offset="0" style="stop-color:#2EE8E8"/>
			<stop  offset="1" style="stop-color:#2069DA"/>
		</linearGradient>
		<path id="XMLID_191_" class="st1" d="M18.6,4c-3.5,0-6.6,1.8-8.5,4.6c1.5-1.3,3.7-2.1,6.2-2.1c3.9,0,7.2,2,7.9,4.6
			c0.6,1,0.9,2.2,0.9,3.5c0,0.6-0.1,1.3-0.3,1.9c-0.5,1.7-1.6,3.1-3.1,4c-0.7,0.3-1.1,0.9-1.1,1.7c0,1,0.8,1.8,1.8,1.8
			c0.2,0,0.4,0,0.6-0.1c0.1,0,0.1,0,0.2-0.1c0,0,0.1,0,0.1-0.1c0,0,0.1,0,0.1-0.1c0.1,0,0.1-0.1,0.2-0.1c0,0,0.1,0,0.1-0.1
			c0.1,0,0.1-0.1,0.2-0.1c0,0,0.1,0,0.1-0.1c0.1-0.1,0.2-0.1,0.3-0.2c1.5-1.1,2.7-2.5,3.4-4.3c0.5-1.1,0.8-2.2,0.9-3.5
			c0-0.3,0-0.5,0-0.8C28.8,8.7,24.2,4,18.6,4z"/>
		
			<linearGradient id="XMLID_4_" gradientUnits="userSpaceOnUse" x1="-2414.1897" y1="398.482" x2="-2413.5833" y2="398.6956" gradientTransform="matrix(15.7843 0 0 -9.5991 38117.082 3836.9907)">
			<stop  offset="0" style="stop-color:#2EE8E8"/>
			<stop  offset="1" style="stop-color:#2069DA"/>
		</linearGradient>
		<path id="XMLID_190_" class="st2" d="M16.3,6.5c-2.5,0-4.8,0.8-6.2,2.1c-0.6,1-1.1,2-1.4,3.2c-0.1,0.4-0.2,0.8-0.2,1.2
			c0.2,0.8,0.6,1.5,1.2,2.1c0.9,0.1,1.8,0.4,2.6,1c-0.1-0.5-0.2-1-0.2-1.6c0-0.7,0.1-1.4,0.3-2.1c0.9-2.7,3.3-4.6,6.3-4.6
			c2.4,0,4.5,1.3,5.7,3.3C23.5,8.5,20.3,6.5,16.3,6.5z"/>
		
			<linearGradient id="XMLID_5_" gradientUnits="userSpaceOnUse" x1="-2256.7617" y1="443.1872" x2="-2255.7617" y2="443.1872" gradientTransform="matrix(8.0321 0 0 -13.2835 18154.3926 5909.0273)">
			<stop  offset="0" style="stop-color:#2EE8E8"/>
			<stop  offset="1" style="stop-color:#2069DA"/>
		</linearGradient>
		<path id="XMLID_189_" class="st3" d="M28.8,15.3c-0.1,1.2-0.4,2.4-0.9,3.5c0.2,0,0.3,0,0.5,0c0.8,0,1.5,0.2,2.1,0.6
			c2.4,1.2,3.7,4.1,3.2,7.2c-0.1,0.7-0.4,1.4-0.7,2c0.4-0.3,0.7-0.6,1-0.9c0.5-0.5,0.9-1.1,1.2-1.8c0.3-0.7,0.5-1.4,0.6-2.1
			c0.1-0.4,0.1-0.7,0.1-1.1C35.9,18.6,32.7,15.3,28.8,15.3z"/>
		
			<linearGradient id="XMLID_6_" gradientUnits="userSpaceOnUse" x1="4130.6587" y1="-8255.6533" x2="4130.2617" y2="-8273.207" gradientTransform="matrix(0.3842 0 0 -0.1749 -1581.5413 -1417.89)">
			<stop  offset="0" style="stop-color:#1968A1"/>
			<stop  offset="1" style="stop-color:#80B8DA"/>
		</linearGradient>
		<path id="XMLID_188_" class="st4" d="M5.1,29.1c0.1,0.1,0.3,0.1,0.4,0.2l0,0l0,0C5.4,29.3,5.2,29.2,5.1,29.1z"/>
		
			<linearGradient id="XMLID_7_" gradientUnits="userSpaceOnUse" x1="1348.6981" y1="-1559.6249" x2="1348.7965" y2="-1559.6428" gradientTransform="matrix(0.1021 0 0 -1.087189e-04 -2304.7166 -1518.1627)">
			<stop  offset="0" style="stop-color:#80C5CC"/>
			<stop  offset="1" style="stop-color:#2F6DAE"/>
		</linearGradient>
		<path id="XMLID_187_" class="st5" d="M9.2,26.8L9.2,26.8L9.2,26.8L9.2,26.8L9.2,26.8z"/>
		
			<linearGradient id="XMLID_8_" gradientUnits="userSpaceOnUse" x1="1249.9559" y1="-4708958" x2="1284.3668" y2="-4708959" gradientTransform="matrix(0.6716 0 0 -3.280640e-04 -837.4581 -1518.0397)">
			<stop  offset="0" style="stop-color:#80C5CC"/>
			<stop  offset="1" style="stop-color:#2F6DAE"/>
		</linearGradient>
		<path id="XMLID_186_" class="st6" d="M9.1,26.8L9.1,26.8c-0.2,0-0.4,0-0.7,0l0,0C8.6,26.8,8.9,26.8,9.1,26.8z"/>
		
			<linearGradient id="XMLID_9_" gradientUnits="userSpaceOnUse" x1="-2428.0803" y1="449.9257" x2="-2427.3354" y2="450.1964" gradientTransform="matrix(17.2423 0 0 -14.1094 41866.7461 6368.0181)">
			<stop  offset="0" style="stop-color:#2EE8E8"/>
			<stop  offset="1" style="stop-color:#2069DA"/>
		</linearGradient>
		<path id="XMLID_185_" class="st7" d="M16.9,16.7c-1-1.9-2.6-3.5-4.6-4.3c-1-0.4-2.2-0.7-3.4-0.7c-0.1,0-0.2,0-0.3,0
			C3.9,11.9,0,15.9,0,20.9c0,1.1,0.2,2.2,0.6,3.3c0.2,0.6,0.5,1.2,0.8,1.7c-0.5-1.1-0.7-2.3-0.5-3.6c0-0.2,0-0.4,0.1-0.6l0,0
			c0-0.1,0.1-0.3,0.1-0.4v-0.1c0-0.1,0.1-0.2,0.1-0.3v-0.1c0-0.1,0.1-0.3,0.1-0.4l0,0c0.1-0.1,0.1-0.3,0.2-0.4c0,0,0-0.1,0.1-0.1
			c0-0.1,0.1-0.2,0.1-0.3c0,0,0-0.1,0.1-0.1C1.9,19.2,2,19.1,2,19c0.1-0.2,0.2-0.3,0.3-0.5l0,0c0.1-0.1,0.2-0.3,0.3-0.4
			s0.1-0.2,0.2-0.2c0.1-0.1,0.2-0.2,0.3-0.3c0.1-0.1,0.2-0.1,0.3-0.2s0.1-0.1,0.2-0.2c0.1,0,0.1-0.1,0.2-0.1C4,17,4.1,16.9,4.2,16.9
			c0.4-0.2,0.8-0.4,1.2-0.5c0.8-0.7,1.9-1.1,3-1.2c0.2,0,0.4,0,0.6,0c1.2,0,2.3,0.4,3.2,1c0.8,0.5,1.4,1.3,1.9,2.2
			c0.2,0.7,0.8,1.2,1.6,1.2c0.9,0,1.6-0.8,1.6-1.7C17.2,17.4,17.1,17,16.9,16.7z"/>
		
			<linearGradient id="XMLID_10_" gradientUnits="userSpaceOnUse" x1="-2498.9478" y1="446.8421" x2="-2498.9404" y2="447.0365" gradientTransform="matrix(32.9737 0 0 -13.7269 82416.9062 6158.3789)">
			<stop  offset="0" style="stop-color:#2EE8E8"/>
			<stop  offset="0.2094" style="stop-color:#2BCDE5"/>
			<stop  offset="1" style="stop-color:#2069DA"/>
		</linearGradient>
		<path id="XMLID_184_" class="st8" d="M30.6,19.4c1.1,0.7,1.8,2,1.8,3.4c0,0.8-0.2,1.5-0.6,2.1s-0.9,1.1-1.6,1.5
			c-0.3,0.2-0.6,0.3-0.9,0.3c-0.4,0.1-2.1,0.1-2.5,0.1h-0.1c-0.6,0-1.1,0-1.7,0c-0.8,0-1.5,0-2.3,0c-0.1,0-0.3,0-0.4,0
			c-0.5,0-0.9,0-1.4,0c-0.3,0-0.5,0-0.8,0c-0.9,0-1.8,0-2.6,0c-0.9,0-1.7,0-2.6,0c-0.8,0-1.6,0-2.4,0c-0.5,0-0.9,0-1.4,0
			c-0.2,0-0.4,0-0.6,0c-0.5,0-0.9,0-1.4,0H9c-0.2,0-0.4,0-0.7,0l0,0c-0.5,0-1.1-0.2-1.6-0.4c-0.1-0.1-0.2-0.1-0.4-0.2
			c-0.1-0.1-0.2-0.1-0.4-0.2c-0.2-0.1-0.5-0.3-0.7-0.5c0-0.1-0.2-0.3-0.4-0.5s-0.4-0.4-0.5-0.6c-0.2-0.2-0.3-0.5-0.4-0.7
			S3.7,23.2,3.6,23c0-0.1-0.1-0.2-0.1-0.2c-0.1-0.2-0.1-0.5-0.2-0.7c0-0.2-0.1-0.3-0.1-0.5s0-0.3,0-0.5c0-1.9,0.9-3.5,2.2-4.6
			C3.2,17,1.5,19,1,21.7c-0.1,0.4-0.1,0.7-0.1,1.1c0,0.5,0,0.9,0.1,1.3c0,0.2,0.1,0.3,0.1,0.5c0.1,0.3,0.2,0.7,0.3,1
			c0,0.1,0.1,0.2,0.1,0.2l0.1,0.1c0.2,0.3,0.5,0.6,0.7,0.9c0.7,0.8,1.5,1.5,2.5,2C4.9,29,5,29.1,5.1,29.1c0.1,0.1,0.3,0.1,0.4,0.2
			c0.7,0.3,1.5,0.5,2.3,0.6C8.1,30,8.7,30,9.1,30c0.2,0,0.4,0,0.5,0c0.5,0,1,0,1.6,0c0.7,0,1.4,0,2,0c0.8,0,1.6,0,2.4,0s1.7,0,2.5,0
			c0.9,0,1.7,0,2.6,0c0.1,0,0.2,0,0.2,0c0.7,0,1.5,0,2.2,0c0.2,0,0.4,0,0.5,0c0.5,0,1.1,0,1.6,0s0.9,0,1.4,0c0.1,0,0.2,0,0.3,0
			c0.4,0,0.7,0,1.1,0c0.5,0,0.9,0,1.4,0c0.4,0,0.7-0.1,1.1-0.2c0.7-0.2,1.3-0.5,2-0.8c0.2-0.1,0.4-0.3,0.6-0.4
			c0.3-0.6,0.5-1.3,0.7-2C34.3,23.5,32.9,20.5,30.6,19.4z"/>
	</g>
	<path id="InfrastructureasCode" class="st9" d="M45.8,37.7v-7.2H45v7.2H45.8z M48,37.7v-3.2c0-0.5,0.2-0.9,0.5-1.1
		c0.3-0.3,0.6-0.4,0.9-0.4c0.9,0,1.4,0.5,1.4,1.5v3.2h0.8v-3.2c0-1.4-0.7-2.2-2-2.2c-0.3,0-0.7,0.1-0.9,0.2
		c-0.3,0.2-0.5,0.4-0.7,0.7v-0.8h-0.8v5.2L48,37.7L48,37.7z M54.4,37.7v-4.6h1.5v-0.7h-1.5v-0.6c0-0.3,0.1-0.4,0.2-0.5
		c0.1-0.1,0.3-0.2,0.5-0.2H56v-0.7h-1c-0.4,0-0.8,0.1-1,0.4c-0.2,0.2-0.3,0.6-0.3,1v0.6h-1.3v0.7h1.3v4.6H54.4z M57.4,37.7v-2.8
		c0-0.5,0.1-0.9,0.4-1.2c0.3-0.4,0.6-0.5,1-0.5c0.3,0,0.5,0,0.8,0.1v-0.8c-0.2-0.1-0.4-0.1-0.7-0.1c-0.4,0-0.7,0.1-1,0.3
		c-0.2,0.2-0.4,0.4-0.5,0.7v-0.9h-0.8v5.2H57.4z M61.9,37.9c0.5,0,0.9-0.1,1.3-0.3c0.3-0.2,0.6-0.4,0.8-0.7v0.9h0.8v-3.4
		c0-0.6-0.2-1.1-0.5-1.4c-0.4-0.4-0.9-0.6-1.7-0.6c-0.6,0-1.1,0.1-1.5,0.4s-0.7,0.7-0.8,1.2l0.8,0.1c0.1-0.3,0.3-0.6,0.5-0.8
		c0.2-0.2,0.6-0.2,0.9-0.2c0.9,0,1.4,0.4,1.4,1.3v0.3h-1.3c-0.8,0-1.4,0.2-1.8,0.4c-0.5,0.3-0.7,0.8-0.7,1.3c0,0.4,0.2,0.8,0.5,1.1
		C60.9,37.8,61.3,37.9,61.9,37.9z M62,37.2c-0.3,0-0.6-0.1-0.8-0.2C61,36.8,61,36.7,61,36.4c0-0.8,0.6-1.1,1.8-1.2H64v0.4
		c0,0.4-0.2,0.8-0.6,1.1C63,37.1,62.5,37.2,62,37.2z M67.9,37.9c1.5,0,2.2-0.5,2.2-1.6c0-0.5-0.2-0.8-0.6-1.1
		c-0.3-0.2-0.7-0.3-1.3-0.5c-0.5-0.1-0.9-0.3-1.1-0.3c-0.3-0.2-0.4-0.3-0.4-0.6c0-0.2,0.1-0.4,0.3-0.5c0.2-0.1,0.5-0.2,0.9-0.2
		s0.7,0.1,1,0.2c0.2,0.1,0.3,0.4,0.4,0.7H70c-0.1-1.1-0.9-1.6-2.1-1.6c-0.6,0-1.1,0.1-1.4,0.4c-0.4,0.3-0.6,0.6-0.6,1.1
		c0,0.4,0.2,0.8,0.6,1c0.2,0.2,0.7,0.3,1.3,0.5c0.6,0.1,0.9,0.3,1.1,0.3c0.3,0.2,0.5,0.4,0.5,0.7c0,0.6-0.5,0.9-1.4,0.9
		c-0.4,0-0.8-0.1-1-0.2c-0.2-0.2-0.4-0.5-0.4-0.9h-0.8C65.8,37.3,66.6,37.9,67.9,37.9z M73.7,37.7v-0.6H73c-0.2,0-0.3-0.1-0.4-0.1
		c-0.1-0.1-0.1-0.2-0.1-0.4v-3.3h1.3v-0.7h-1.3v-1.7l-0.8,0.2v1.4h-1.1v0.7h1.1v3.3c0,0.4,0.1,0.7,0.3,0.9c0.2,0.2,0.5,0.3,0.9,0.3
		C72.9,37.7,73.7,37.7,73.7,37.7z M75.5,37.7v-2.8c0-0.5,0.1-0.9,0.4-1.2c0.3-0.4,0.6-0.5,1-0.5c0.3,0,0.5,0,0.8,0.1v-0.8
		c-0.2-0.1-0.4-0.1-0.7-0.1c-0.4,0-0.7,0.1-1,0.3c-0.2,0.2-0.4,0.4-0.5,0.7v-0.9h-0.8v5.2H75.5z M80.3,37.9c0.7,0,1.3-0.3,1.7-1v0.8
		h0.8v-5.2H82v3.2c-0.1,0.4-0.2,0.8-0.5,1.1s-0.6,0.4-0.9,0.4c-0.5,0-0.8-0.1-1-0.4c-0.2-0.2-0.3-0.6-0.3-1.1v-3.2h-0.8v3.2
		C78.4,37.2,79,37.9,80.3,37.9z M86.3,37.9c0.6,0,1.2-0.2,1.6-0.5s0.7-0.9,0.8-1.5h-0.8c-0.1,0.9-0.6,1.4-1.5,1.4
		c-0.5,0-0.9-0.2-1.2-0.6c-0.3-0.4-0.4-0.9-0.4-1.5s0.1-1.1,0.4-1.5s0.7-0.6,1.2-0.6c0.4,0,0.8,0.1,1,0.3c0.3,0.2,0.4,0.5,0.5,0.9
		h0.8c-0.1-0.6-0.3-1.1-0.7-1.4c-0.4-0.3-0.9-0.5-1.6-0.5c-0.8,0-1.4,0.3-1.8,0.8s-0.6,1.2-0.6,2s0.2,1.5,0.6,1.9
		C84.9,37.6,85.6,37.9,86.3,37.9z M92.2,37.7v-0.6h-0.7c-0.2,0-0.3-0.1-0.4-0.1C91,36.9,91,36.8,91,36.6v-3.3h1.3v-0.7H91v-1.7
		l-0.8,0.2v1.4h-1.1v0.7h1.1v3.3c0,0.4,0.1,0.7,0.3,0.9c0.2,0.2,0.5,0.3,0.9,0.3C91.4,37.7,92.2,37.7,92.2,37.7z M95.2,37.9
		c0.7,0,1.3-0.3,1.7-1v0.8h0.8v-5.2h-0.8v3.2c-0.1,0.4-0.2,0.8-0.5,1.1s-0.6,0.4-0.9,0.4c-0.5,0-0.8-0.1-1-0.4
		c-0.2-0.2-0.3-0.6-0.3-1.1v-3.2h-0.8v3.2C93.2,37.2,93.9,37.9,95.2,37.9z M99.7,37.7v-2.8c0-0.5,0.1-0.9,0.4-1.2
		c0.3-0.4,0.6-0.5,1-0.5c0.3,0,0.5,0,0.8,0.1v-0.8c-0.2-0.1-0.4-0.1-0.7-0.1c-0.4,0-0.7,0.1-1,0.3c-0.2,0.2-0.4,0.4-0.5,0.7v-0.9
		h-0.8v5.2H99.7z M104.8,37.9c0.7,0,1.2-0.2,1.7-0.6c0.4-0.3,0.6-0.7,0.7-1.2h-0.8c-0.1,0.4-0.3,0.6-0.5,0.8c-0.3,0.2-0.6,0.3-1,0.3
		c-0.5,0-0.9-0.2-1.2-0.5c-0.3-0.3-0.4-0.8-0.5-1.4h4.1c0-0.9-0.2-1.6-0.6-2.1c-0.4-0.6-1.1-0.9-1.9-0.9s-1.4,0.3-1.8,0.8
		s-0.7,1.2-0.7,1.9c0,0.9,0.2,1.5,0.7,2C103.5,37.6,104.1,37.9,104.8,37.9z M106.5,34.7h-3.3c0.1-0.5,0.2-0.9,0.5-1.2
		c0.3-0.3,0.7-0.5,1.1-0.5C105.8,33,106.4,33.6,106.5,34.7z M113.2,37.9c0.5,0,0.9-0.1,1.3-0.3c0.3-0.2,0.6-0.4,0.8-0.7v0.9h0.8
		v-3.4c0-0.6-0.2-1.1-0.5-1.4c-0.4-0.4-0.9-0.6-1.7-0.6c-0.6,0-1.1,0.1-1.5,0.4s-0.7,0.7-0.8,1.2l0.8,0.1c0.1-0.3,0.3-0.6,0.5-0.8
		c0.2-0.2,0.6-0.2,0.9-0.2c0.9,0,1.4,0.4,1.4,1.3v0.3h-1.3c-0.8,0-1.4,0.2-1.8,0.4c-0.5,0.3-0.7,0.8-0.7,1.3c0,0.4,0.2,0.8,0.5,1.1
		C112.2,37.8,112.6,37.9,113.2,37.9z M113.3,37.2c-0.3,0-0.6-0.1-0.8-0.2c-0.2-0.2-0.3-0.4-0.3-0.6c0-0.8,0.6-1.1,1.8-1.2h1.2v0.4
		c0,0.4-0.2,0.8-0.6,1.1C114.3,37.1,113.8,37.2,113.3,37.2z M119.2,37.9c1.5,0,2.2-0.5,2.2-1.6c0-0.5-0.2-0.8-0.6-1.1
		c-0.3-0.2-0.7-0.3-1.3-0.5c-0.5-0.1-0.9-0.3-1.1-0.3c-0.3-0.2-0.4-0.3-0.4-0.6c0-0.2,0.1-0.4,0.3-0.5c0.2-0.1,0.5-0.2,0.9-0.2
		s0.7,0.1,1,0.2c0.2,0.1,0.3,0.4,0.4,0.7h0.8c-0.1-1.1-0.9-1.6-2.1-1.6c-0.6,0-1.1,0.1-1.4,0.4c-0.4,0.3-0.6,0.6-0.6,1.1
		c0,0.4,0.2,0.8,0.6,1c0.2,0.2,0.7,0.3,1.3,0.5c0.6,0.1,0.9,0.3,1.1,0.3c0.3,0.2,0.5,0.4,0.5,0.7c0,0.6-0.5,0.9-1.4,0.9
		c-0.4,0-0.8-0.1-1-0.2c-0.2-0.2-0.4-0.5-0.4-0.9h-1C117.1,37.3,117.9,37.9,119.2,37.9z M129,37.9c0.8,0,1.4-0.2,2-0.7s1-1.1,1.1-2
		h-0.8c-0.1,0.6-0.4,1.1-0.9,1.4c-0.4,0.3-0.9,0.5-1.5,0.5c-0.9,0-1.5-0.3-1.9-0.8s-0.6-1.2-0.6-2.1c0-0.9,0.2-1.6,0.6-2.2
		c0.5-0.6,1.1-0.9,1.9-0.9c0.6,0,1,0.1,1.4,0.4s0.7,0.7,0.8,1.2h0.8c-0.1-0.7-0.4-1.3-1-1.7c-0.5-0.4-1.2-0.6-2-0.6
		c-1.1,0-2,0.4-2.6,1.1c-0.6,0.7-0.8,1.6-0.8,2.6c0,1.1,0.3,1.9,0.8,2.6C127,37.5,127.9,37.9,129,37.9z M135.5,37.9
		c0.8,0,1.4-0.3,1.9-0.8c0.4-0.5,0.7-1.2,0.7-1.9c0-0.8-0.2-1.4-0.7-2c-0.5-0.5-1.1-0.8-1.9-0.8c-0.8,0-1.4,0.3-1.9,0.8
		c-0.4,0.5-0.7,1.2-0.7,2s0.2,1.4,0.7,1.9S134.7,37.9,135.5,37.9z M135.5,37.2c-0.6,0-1-0.2-1.3-0.6c-0.3-0.4-0.4-0.9-0.4-1.4
		c0-0.6,0.1-1.1,0.4-1.5c0.3-0.4,0.7-0.6,1.3-0.6c0.5,0,1,0.2,1.3,0.6c0.3,0.4,0.4,0.9,0.4,1.5s-0.1,1.1-0.4,1.4
		C136.5,37,136.1,37.2,135.5,37.2z M141.3,37.9c0.8,0,1.4-0.3,1.7-1v0.9h0.8v-7.4H143v3.1c-0.4-0.7-1-1.1-1.7-1.1s-1.3,0.3-1.8,0.8
		c-0.4,0.5-0.6,1.1-0.6,1.9s0.2,1.4,0.6,1.9C139.9,37.6,140.5,37.9,141.3,37.9z M141.4,37.2c-0.6,0-1-0.2-1.3-0.6
		c-0.3-0.4-0.4-0.9-0.4-1.5s0.1-1.1,0.4-1.5c0.3-0.4,0.7-0.6,1.3-0.6c0.5,0,0.9,0.2,1.1,0.6c0.3,0.4,0.4,0.9,0.4,1.5v0.1
		c0,0.6-0.1,1.1-0.4,1.4C142.3,37,141.9,37.2,141.4,37.2z M147.3,37.9c0.7,0,1.2-0.2,1.7-0.6c0.4-0.3,0.6-0.7,0.7-1.2h-0.8
		c-0.1,0.4-0.3,0.6-0.5,0.8c-0.3,0.2-0.6,0.3-1,0.3c-0.5,0-0.9-0.2-1.2-0.5s-0.4-0.8-0.5-1.4h4.1c0-0.9-0.2-1.6-0.6-2.1
		c-0.4-0.6-1.1-0.9-1.9-0.9c-0.8,0-1.4,0.3-1.8,0.8c-0.4,0.5-0.7,1.2-0.7,1.9c0,0.9,0.2,1.5,0.7,2C145.9,37.6,146.5,37.9,147.3,37.9
		z M148.9,34.7h-3.3c0.1-0.5,0.2-0.9,0.5-1.2s0.7-0.5,1.1-0.5C148.2,33,148.8,33.6,148.9,34.7z"/>
	<g>
		<g>
			<defs>
				<path id="SVGID_1_" d="M184.2,23.1h-8.1v-3.3h8.1V23.1z M176.1,25.2v-0.9h8.1v0.9h1.3v-6.7h-10.7v6.7H176.1z M186.2,17.8l1-0.9
					c-0.5-0.7-1.2-1.5-2.1-2.5c-0.9-1-1.6-1.8-2.1-2.3l-1,0.9c0.5,0.5,1.2,1.2,2,2.2l-3.9,0.3c-1.7,0.1-3,0.2-3.9,0.3
					c0.6-0.5,1.2-1.2,2-2.1s1.4-1.8,2-2.6l-1.2-0.7c-0.5,0.8-1.3,1.8-2.2,2.8c-0.9,1.1-1.6,1.8-2.3,2.3c-0.1,0.1-0.3,0.2-0.5,0.2
					s-0.5,0.1-0.9,0.2l0.4,1.3l1.1-0.1c1.7-0.1,3.4-0.3,5.1-0.4s3.4-0.3,5.1-0.4l0.3,0.3C185.8,17.3,186.1,17.6,186.2,17.8z M161,18
					l1.1-0.7c-0.3-0.5-0.8-1.2-1.4-1.9c-0.6-0.8-1-1.4-1.4-1.8l-1,0.7c0.3,0.4,0.8,1,1.3,1.8C160.2,16.8,160.6,17.4,161,18z
					 M167.3,18c0.4-0.4,0.8-1.1,1.4-1.9c0.6-0.8,1-1.4,1.3-1.9l-1-0.7c-0.3,0.5-0.7,1.1-1.3,1.9c-0.6,0.8-1,1.4-1.4,1.8L167.3,18z
					 M164.8,25.1v-5.2h6.5v-1.2h-6.5v-6.1h5.9v-1.2h-13v1.2h5.9v6.1H157v1.2h6.5v5.2C163.5,25.1,164.8,25.1,164.8,25.1z M152.7,21.7
					v-1.2h-5.8v1.2H152.7z M145,23.1h-1.6v-5.6h1.6V23.1z M146.2,24.3v-8h-3c0.4-1,0.7-2.1,1-3.3h2.4v-1.2h-5.5V13h1.8
					c-0.2,1.1-0.5,2.1-1,3.2c-0.4,1.1-0.9,2-1.3,2.8l0.5,1.4c0.4-0.7,0.8-1.4,1.1-2v5.9H146.2z M152.5,25.1c0.5,0,0.9-0.1,1.2-0.2
					s0.5-0.4,0.6-0.7s0.3-0.8,0.3-1.5c0.2-1.7,0.4-3.5,0.4-5.2h-1.9l0.6-6h-6.4v1.2h5l-0.4,4.8H149l0.4-4l-1.2-0.1l-0.5,5.3h6.1
					c-0.1,1.4-0.2,2.7-0.4,3.8c-0.1,0.6-0.2,0.9-0.4,1.1s-0.5,0.3-1,0.3s-1.3-0.1-2.3-0.2l0.2,1.2C150.9,25,151.7,25.1,152.5,25.1z
					 M137.2,14.1l0.8-0.9c-0.3-0.2-0.6-0.6-1.2-1c-0.5-0.4-1-0.8-1.4-1.1l-0.7,0.9c0.4,0.3,0.8,0.6,1.3,1.1
					C136.5,13.4,136.9,13.8,137.2,14.1z M128.3,25.1V14.8c0.6-1.2,1.1-2.4,1.5-3.7l-1.2-0.4c-0.4,1.4-1,2.8-1.7,4.1
					c-0.7,1.4-1.4,2.5-2.2,3.4l0.6,1.4c0.6-0.8,1.2-1.6,1.7-2.4v8h1.3V25.1z M136.8,25c0.4,0,0.8-0.1,1.1-0.4s0.6-0.8,0.8-1.4
					c0.2-0.7,0.4-1.4,0.5-2.2l-1.1-0.5c-0.1,0.7-0.3,1.3-0.4,1.9c-0.1,0.5-0.3,0.8-0.4,1c-0.1,0.2-0.3,0.2-0.5,0.2s-0.4-0.1-0.6-0.2
					s-0.4-0.3-0.6-0.6c-0.3-0.5-0.7-1.3-1-2.3s-0.5-2.3-0.7-3.7l5.3-0.5l-0.1-1.3l-5.4,0.5c-0.1-0.7-0.1-1.3-0.1-1.7l-0.1-3.2h-1.3
					l0.2,3.1c0,0.7,0.1,1.3,0.1,1.9l-3.4,0.3l0.1,1.2l3.4-0.3c0.4,3.1,1,5.3,1.9,6.6c0.4,0.6,0.8,0.9,1.1,1.2S136.4,25,136.8,25z
					 M114.5,17.6H111v-2.1h3.5V17.6z M114.5,14.3H111v-2h3.5V14.3z M118.6,25.1V12.7h2.7v7.7c0,0.4-0.1,0.7-0.2,0.9
					c-0.1,0.2-0.3,0.3-0.6,0.3c-0.4,0-0.9,0-1.3-0.1l0.2,1.3c0.5,0.1,1,0.1,1.6,0.1c0.5,0,0.9-0.1,1.1-0.4s0.3-0.8,0.3-1.5v-9.5
					h-5.2v13.7L118.6,25.1L118.6,25.1z M110,24.4l1-0.5c0.8-0.4,2-0.9,3.6-1.6c0.4,0.8,0.7,1.4,0.8,1.8l1.1-0.5
					c-0.3-0.7-0.7-1.5-1.2-2.4c-0.4-0.9-0.8-1.6-1.1-2l-1,0.5c0.4,0.7,0.6,1.2,0.8,1.5l-3,1.3v-3.9h4.7v-7.5h-5.9v11.2
					c0,0.2,0,0.3-0.1,0.5c-0.1,0.1-0.2,0.3-0.4,0.4L110,24.4z M103.3,25.1c0.7,0,1.3,0,1.8-0.1c0.5,0,0.9-0.1,1.2-0.3
					c0.3-0.1,0.5-0.3,0.7-0.6c0.1-0.3,0.2-0.6,0.3-1.1c0.1-0.6,0.1-1,0.1-1.1l-1.2-0.3c0,0.1,0,0.4,0,0.8c0,0.3-0.1,0.6-0.2,0.8
					c-0.1,0.2-0.2,0.3-0.4,0.4s-0.5,0.1-0.9,0.2c-0.6,0.1-1,0.1-1.4,0.1s-0.9,0-1.4-0.1c-0.3,0-0.6-0.1-0.7-0.2s-0.3-0.2-0.3-0.4
					c-0.1-0.2-0.1-0.5-0.1-0.9v-3.9l1.6-0.5v4.7h1.1v-5l2.1-0.6c0,0.9,0,1.7-0.1,2.5c0,0.3-0.1,0.6-0.2,0.7s-0.3,0.2-0.5,0.2
					c-0.3,0-0.5,0-0.7-0.1l0.2,1.1c0.3,0,0.7,0,1,0c0.5,0,0.8-0.1,1-0.3c0.2-0.2,0.3-0.6,0.4-1.2c0-0.4,0.1-1.1,0.1-2.1
					s0.1-1.9,0.1-2.4l-3.3,1v-2.2h-1.1v2.5l-1.6,0.5v-1.3h-1.1v1.6l-1.2,0.4l0.3,1.1l0.9-0.3v4c0,0.8,0.2,1.4,0.5,1.7
					s0.8,0.5,1.5,0.6C102,25,102.6,25.1,103.3,25.1z M93.9,25.2c0.4-0.9,0.7-1.7,0.8-2.4c0.2-0.7,0.3-1.4,0.4-2.3
					c0.1-0.8,0.1-1.9,0.1-3.1h1.5v0.8c0,1.6-0.1,3.1-0.2,4.5c0,0.4-0.1,0.6-0.2,0.7s-0.3,0.2-0.5,0.2s-0.5,0-0.8-0.1l0.2,1.2
					c0.3,0,0.6,0.1,0.7,0.1c0.6,0,1-0.1,1.2-0.3s0.4-0.6,0.4-1.1c0.1-0.7,0.1-1.9,0.2-3.3s0.1-2.7,0-3.6h-2.6v-2.1h3v-1.2h-1.7
					c0-0.1-0.1-0.3-0.1-0.4c0-0.1-0.1-0.2-0.1-0.3c-0.1-0.5-0.3-1.1-0.4-1.7L94.6,11l0.1,0.5c0.1,0.2,0.1,0.5,0.2,0.8s0.2,0.7,0.2,1
					h-2.3v1.2H94v2.6c0,1.3,0,2.3-0.1,3.2c-0.1,0.9-0.2,1.6-0.4,2.3c-0.2,0.7-0.5,1.5-0.8,2.3L93.9,25.2z M99.1,15.9
					c0.5-0.7,1-1.4,1.5-2.3h6.6v-1.2h-6c0.2-0.5,0.5-1.1,0.7-1.7l-1.2-0.3c-0.6,1.7-1.4,3.2-2.6,4.8L99.1,15.9z M86.5,21.3
					c-0.9-0.8-1.6-1.7-2.2-2.9h4.4C88.3,19.5,87.6,20.5,86.5,21.3z M81.9,25.2c1.9-0.7,3.4-1.5,4.6-2.3c1.1,0.8,2.6,1.6,4.4,2.3
					l0.6-1.2c-1.7-0.5-3-1.2-4-1.8c1.2-1,2.1-2.3,2.7-3.7v-1.2h-8v1.2H83c0.6,1.4,1.4,2.7,2.5,3.6c-1.2,0.8-2.6,1.4-4.2,2L81.9,25.2
					z M79.3,24.8c0.4-0.3,0.6-0.6,0.8-0.7l2.6-2.1l-0.6-1.1c-0.2,0.2-0.6,0.5-1,0.8s-0.7,0.6-0.9,0.7v-6.7h-3.3v1.2H79v6
					c0,0.2,0,0.4-0.1,0.5s-0.2,0.3-0.4,0.5L79.3,24.8z M82.5,16.8c0.9-0.6,1.6-1.1,1.9-1.7c0.4-0.5,0.5-1.1,0.5-1.7v-1h2.9v2.4
					c0,0.5,0.1,0.9,0.4,1.1s0.7,0.3,1.3,0.3h1.6l0.2-1.2h-1.6c-0.2,0-0.3,0-0.4-0.1s-0.1-0.2-0.1-0.5v-3.1h-5.4v1.6
					c0,0.4-0.1,0.8-0.2,1.1s-0.3,0.6-0.6,0.9c-0.3,0.3-0.8,0.6-1.4,1L82.5,16.8z M80.6,14.3l0.9-1c-0.5-0.5-1-1-1.5-1.5
					s-1-0.9-1.3-1.1l-0.8,0.9c0.4,0.3,0.8,0.7,1.4,1.3C79.8,13.4,80.3,13.9,80.6,14.3z M64.8,22.9h-1.6v-5.4h1.6V22.9z M65.9,24.1
					v-7.8h-2.5c0.4-0.9,0.7-2,1-3.2h2.2v-1.2H61V13h2.2c-0.2,1-0.6,2.1-1,3.2c-0.5,1.1-1,2.1-1.5,3l0.6,1.2c0.3-0.4,0.6-0.9,0.9-1.4
					v5.2h3.7V24.1z M74.6,25.1v-6.4h-1.2v4.4h-2v-5.5h2.9V12h-1.1v4.5h-1.8v-6h-1.2v6h-1.8V12h-1.1v5.7h2.9v5.5h-2v-4.4H67v5.6h6.4
					v0.7C73.4,25.1,74.6,25.1,74.6,25.1z M58.7,24.6v-1.1h-5.9v-1.3h3.1v-1h-3.1v-1.5h-1.2v1.5h-3.2v1h3.2v1.3h-6v1.1H58.7z
					 M55.2,18.1H49v-1h6.2V18.1z M55.2,16.1H49v-1h6.2V16.1z M55.2,14H49v-1h6.2V14z M45.3,23c1.1-0.5,2.1-1.1,3-1.8s1.5-1.4,2-2.1
					H54c0.6,0.8,1.3,1.6,2.1,2.1s1.7,1.1,2.9,1.6l0.5-1.1c-1-0.4-1.8-0.8-2.4-1.2c-0.6-0.4-1.2-0.9-1.7-1.5h3.9v-1h-2.9v-5h2.3v-1
					h-2.3v-1.2h-1.2V12H49v-1.2h-1.2V12h-2.3v1h2.3v5.1H45v1h3.9c-0.9,1.1-2.3,2-4.1,2.8L45.3,23z"/>
			</defs>
			<clipPath id="SVGID_2_">
				<use xlink:href="#SVGID_1_"  style="overflow:visible;"/>
			</clipPath>
			<rect x="39.7" y="5.3" class="st10" width="152.5" height="24.9"/>
		</g>
	</g>
</g>
</svg>
