<?xml version="1.0" encoding="utf-8"?>
<!-- Generator: Adobe Illustrator 23.0.4, SVG Export Plug-In . SVG Version: 6.00 Build 0)  -->
<svg version="1.1" id="图层_1" xmlns="http://www.w3.org/2000/svg" xmlns:xlink="http://www.w3.org/1999/xlink" x="0px" y="0px"
	 viewBox="0 0 200 48" style="enable-background:new 0 0 200 48;" xml:space="preserve">
<style type="text/css">
	.st0{fill:url(#XMLID_2_);}
	.st1{fill:url(#XMLID_3_);}
	.st2{fill:url(#XMLID_4_);}
	.st3{fill:url(#XMLID_5_);}
	.st4{fill:url(#XMLID_6_);}
	.st5{fill:url(#XMLID_7_);}
	.st6{fill:url(#XMLID_8_);}
	.st7{fill:url(#XMLID_9_);}
	.st8{fill:url(#XMLID_10_);}
	.st9{fill:#FFFFFF;fill-opacity:0.8598;}
	.st10{clip-path:url(#SVGID_2_);fill:#FFFFFF;}
</style>
<title>laC-logo</title>
<g id="XMLID_183_" transform="translate(0.200000, 5.000000)">
	
		<linearGradient id="XMLID_2_" gradientUnits="userSpaceOnUse" x1="-1633.998" y1="52.2397" x2="-1632.998" y2="52.2397" gradientTransform="matrix(20.355 0 0 19.9077 33268.4258 -1025.9729)">
		<stop  offset="0" style="stop-color:#7373A3"/>
		<stop  offset="1" style="stop-color:#80B8DA"/>
	</linearGradient>
	<path id="XMLID_192_" class="st0" d="M18.6,4c-3.5,0-6.6,1.8-8.5,4.6c-0.6,1-1.1,2-1.4,3.2c-0.1,0.4-0.2,0.8-0.2,1.2
		c0.2,0.8,0.6,1.5,1.2,2.1c0.9,0.1,1.8,0.4,2.6,1c-0.1-0.5-0.2-1-0.2-1.6c0-0.7,0.1-1.4,0.3-2.1c0.9-2.7,3.3-4.6,6.3-4.6
		c2.4,0,4.5,1.3,5.7,3.3c0.6,1,0.9,2.2,0.9,3.5c0,0.6-0.1,1.3-0.3,1.9c-0.5,1.7-1.6,3.1-3.1,4c-0.7,0.3-1.1,0.9-1.1,1.7
		c0,1,0.8,1.8,1.8,1.8c0.2,0,0.4,0,0.6-0.1c0.1,0,0.1,0,0.2-0.1c0,0,0.1,0,0.1-0.1c0,0,0.1,0,0.1-0.1c0.1,0,0.1-0.1,0.2-0.1
		c0,0,0.1,0,0.1-0.1c0.1,0,0.1-0.1,0.2-0.1c0,0,0.1,0,0.1-0.1c0.1-0.1,0.2-0.1,0.3-0.2c1.5-1.1,2.7-2.5,3.4-4.3
		c0.5-1.1,0.8-2.2,0.9-3.5c0-0.3,0-0.5,0-0.8C28.8,8.7,24.2,4,18.6,4z"/>
	
		<linearGradient id="XMLID_3_" gradientUnits="userSpaceOnUse" x1="-1626.4515" y1="52.2397" x2="-1625.4515" y2="52.2397" gradientTransform="matrix(18.6842 0 0 19.9077 30399.0469 -1025.9719)">
		<stop  offset="0" style="stop-color:#2EE8E8"/>
		<stop  offset="1" style="stop-color:#2069DA"/>
	</linearGradient>
	<path id="XMLID_191_" class="st1" d="M18.6,4c-3.5,0-6.6,1.8-8.5,4.6c1.5-1.3,3.7-2.1,6.2-2.1c3.9,0,7.2,2,7.9,4.6
		c0.6,1,0.9,2.2,0.9,3.5c0,0.6-0.1,1.3-0.3,1.9c-0.5,1.7-1.6,3.1-3.1,4c-0.7,0.3-1.1,0.9-1.1,1.7c0,1,0.8,1.8,1.8,1.8
		c0.2,0,0.4,0,0.6-0.1c0.1,0,0.1,0,0.2-0.1c0,0,0.1,0,0.1-0.1c0,0,0.1,0,0.1-0.1c0.1,0,0.1-0.1,0.2-0.1c0,0,0.1,0,0.1-0.1
		c0.1,0,0.1-0.1,0.2-0.1c0,0,0.1,0,0.1-0.1c0.1-0.1,0.2-0.1,0.3-0.2c1.5-1.1,2.7-2.5,3.4-4.3c0.5-1.1,0.8-2.2,0.9-3.5
		c0-0.3,0-0.5,0-0.8C28.8,8.7,24.2,4,18.6,4z"/>
	
		<linearGradient id="XMLID_4_" gradientUnits="userSpaceOnUse" x1="-1609.4109" y1="107.8671" x2="-1608.8043" y2="107.6535" gradientTransform="matrix(15.7843 0 0 9.5991 25414.2129 -1023.5054)">
		<stop  offset="0" style="stop-color:#2EE8E8"/>
		<stop  offset="1" style="stop-color:#2069DA"/>
	</linearGradient>
	<path id="XMLID_190_" class="st2" d="M16.3,6.5c-2.5,0-4.8,0.8-6.2,2.1c-0.6,1-1.1,2-1.4,3.2c-0.1,0.4-0.2,0.8-0.2,1.2
		c0.2,0.8,0.6,1.5,1.2,2.1c0.9,0.1,1.8,0.4,2.6,1c-0.1-0.5-0.2-1-0.2-1.6c0-0.7,0.1-1.4,0.3-2.1c0.9-2.7,3.3-4.6,6.3-4.6
		c2.4,0,4.5,1.3,5.7,3.3C23.5,8.5,20.3,6.5,16.3,6.5z"/>
	
		<linearGradient id="XMLID_5_" gradientUnits="userSpaceOnUse" x1="-1504.5077" y1="78.0429" x2="-1503.5077" y2="78.0429" gradientTransform="matrix(8.0321 0 0 13.2835 12112.2119 -1014.7325)">
		<stop  offset="0" style="stop-color:#2EE8E8"/>
		<stop  offset="1" style="stop-color:#2069DA"/>
	</linearGradient>
	<path id="XMLID_189_" class="st3" d="M28.8,15.3c-0.1,1.2-0.4,2.4-0.9,3.5c0.2,0,0.3,0,0.5,0c0.8,0,1.5,0.2,2.1,0.6
		c2.4,1.2,3.7,4.1,3.2,7.2c-0.1,0.7-0.4,1.4-0.7,2c0.4-0.3,0.7-0.6,1-0.9c0.5-0.5,0.9-1.1,1.2-1.8c0.3-0.7,0.5-1.4,0.6-2.1
		c0.1-0.4,0.1-0.7,0.1-1.1C35.9,18.6,32.7,15.3,28.8,15.3z"/>
	
		<linearGradient id="XMLID_6_" gradientUnits="userSpaceOnUse" x1="2754.0437" y1="5871.1133" x2="2753.6467" y2="5888.667" gradientTransform="matrix(0.3842 0 0 0.1749 -1052.6459 -1000.834)">
		<stop  offset="0" style="stop-color:#1968A1"/>
		<stop  offset="1" style="stop-color:#80B8DA"/>
	</linearGradient>
	<path id="XMLID_188_" class="st4" d="M5.1,29.1c0.1,0.1,0.3,0.1,0.4,0.2l0,0l0,0C5.4,29.3,5.2,29.2,5.1,29.1z"/>
	
		<linearGradient id="XMLID_7_" gradientUnits="userSpaceOnUse" x1="-1592.2747" y1="1346.3586" x2="-1592.1763" y2="1346.3766" gradientTransform="matrix(0.1021 0 0 1.087189e-04 -1533.4409 -1003.2236)">
		<stop  offset="0" style="stop-color:#80C5CC"/>
		<stop  offset="1" style="stop-color:#2F6DAE"/>
	</linearGradient>
	<path id="XMLID_187_" class="st5" d="M9.2,26.8L9.2,26.8H9.1l0,0C9.1,26.8,9.2,26.8,9.2,26.8z"/>
	
		<linearGradient id="XMLID_8_" gradientUnits="userSpaceOnUse" x1="830.1164" y1="3139702.5" x2="864.5273" y2="3139703.5" gradientTransform="matrix(0.6716 0 0 3.280640e-04 -555.4968 -1003.2234)">
		<stop  offset="0" style="stop-color:#80C5CC"/>
		<stop  offset="1" style="stop-color:#2F6DAE"/>
	</linearGradient>
	<path id="XMLID_186_" class="st6" d="M9.1,26.8L9.1,26.8c-0.2,0-0.4,0-0.7,0l0,0C8.6,26.8,8.9,26.8,9.1,26.8z"/>
	
		<linearGradient id="XMLID_9_" gradientUnits="userSpaceOnUse" x1="-1618.6996" y1="73.5738" x2="-1617.9548" y2="73.3031" gradientTransform="matrix(17.2423 0 0 14.1094 27911.1602 -1018.2458)">
		<stop  offset="0" style="stop-color:#2EE8E8"/>
		<stop  offset="1" style="stop-color:#2069DA"/>
	</linearGradient>
	<path id="XMLID_185_" class="st7" d="M16.9,16.7c-1-1.9-2.6-3.5-4.6-4.3c-1-0.4-2.2-0.7-3.4-0.7c-0.1,0-0.2,0-0.3,0
		C3.9,11.9,0,15.9,0,20.9c0,1.1,0.2,2.2,0.6,3.3c0.2,0.6,0.5,1.2,0.8,1.7c-0.5-1.1-0.7-2.3-0.5-3.6c0-0.2,0-0.4,0.1-0.6l0,0
		c0-0.1,0.1-0.3,0.1-0.4v-0.1c0-0.1,0.1-0.2,0.1-0.3v-0.1c0-0.1,0.1-0.3,0.1-0.4l0,0c0.1-0.1,0.1-0.3,0.2-0.4c0,0,0-0.1,0.1-0.1
		c0-0.1,0.1-0.2,0.1-0.3c0,0,0-0.1,0.1-0.1C1.9,19.2,2,19.1,2,19c0.1-0.2,0.2-0.3,0.3-0.5l0,0c0.1-0.1,0.2-0.3,0.3-0.4
		s0.1-0.2,0.2-0.2c0.1-0.1,0.2-0.2,0.3-0.3c0.1-0.1,0.2-0.1,0.3-0.2s0.1-0.1,0.2-0.2c0.1,0,0.1-0.1,0.2-0.1C4,17,4.1,16.9,4.2,16.9
		c0.4-0.2,0.8-0.4,1.2-0.5c0.8-0.7,1.9-1.1,3-1.2c0.2,0,0.4,0,0.6,0c1.2,0,2.3,0.4,3.2,1c0.8,0.5,1.4,1.3,1.9,2.2
		c0.2,0.7,0.8,1.2,1.6,1.2c0.9,0,1.6-0.8,1.6-1.7C17.2,17.4,17.1,17,16.9,16.7z"/>
	
		<linearGradient id="XMLID_10_" gradientUnits="userSpaceOnUse" x1="-1665.7987" y1="75.6403" x2="-1665.7914" y2="75.4459" gradientTransform="matrix(32.9737 0 0 13.7269 54944.8984 -1013.6852)">
		<stop  offset="0" style="stop-color:#2EE8E8"/>
		<stop  offset="0.2094" style="stop-color:#2BCDE5"/>
		<stop  offset="1" style="stop-color:#2069DA"/>
	</linearGradient>
	<path id="XMLID_184_" class="st8" d="M30.6,19.4c1.1,0.7,1.8,2,1.8,3.4c0,0.8-0.2,1.5-0.6,2.1s-0.9,1.1-1.6,1.5
		c-0.3,0.2-0.6,0.3-0.9,0.3c-0.4,0.1-2.1,0.1-2.5,0.1h-0.1c-0.6,0-1.1,0-1.7,0c-0.8,0-1.5,0-2.3,0c-0.1,0-0.3,0-0.4,0
		c-0.5,0-0.9,0-1.4,0c-0.3,0-0.5,0-0.8,0c-0.9,0-1.8,0-2.6,0c-0.9,0-1.7,0-2.6,0c-0.8,0-1.6,0-2.4,0c-0.5,0-0.9,0-1.4,0
		c-0.2,0-0.4,0-0.6,0c-0.5,0-0.9,0-1.4,0H9c-0.2,0-0.4,0-0.7,0l0,0c-0.5,0-1.1-0.2-1.6-0.4c-0.1-0.1-0.2-0.1-0.4-0.2
		c-0.1-0.1-0.2-0.1-0.4-0.2c-0.2-0.1-0.5-0.3-0.7-0.5c0-0.1-0.2-0.3-0.4-0.5s-0.4-0.4-0.5-0.6c-0.2-0.2-0.3-0.5-0.4-0.7
		S3.7,23.2,3.6,23c0-0.1-0.1-0.2-0.1-0.2c-0.1-0.2-0.1-0.5-0.2-0.7c0-0.2-0.1-0.3-0.1-0.5s0-0.3,0-0.5c0-1.9,0.9-3.5,2.2-4.6
		C3.2,17,1.5,19,1,21.7c-0.1,0.4-0.1,0.7-0.1,1.1c0,0.5,0,0.9,0.1,1.3c0,0.2,0.1,0.3,0.1,0.5c0.1,0.3,0.2,0.7,0.3,1
		c0,0.1,0.1,0.2,0.1,0.2l0.1,0.1c0.2,0.3,0.5,0.6,0.7,0.9c0.7,0.8,1.5,1.5,2.5,2C4.9,29,5,29.1,5.1,29.1c0.1,0.1,0.3,0.1,0.4,0.2
		c0.7,0.3,1.5,0.5,2.3,0.6C8.1,30,8.7,30,9.1,30c0.2,0,0.4,0,0.5,0c0.5,0,1,0,1.6,0c0.7,0,1.4,0,2,0c0.8,0,1.6,0,2.4,0s1.7,0,2.5,0
		c0.9,0,1.7,0,2.6,0c0.1,0,0.2,0,0.2,0c0.7,0,1.5,0,2.2,0c0.2,0,0.4,0,0.5,0c0.5,0,1.1,0,1.6,0s0.9,0,1.4,0c0.1,0,0.2,0,0.3,0
		c0.4,0,0.7,0,1.1,0c0.5,0,0.9,0,1.4,0c0.4,0,0.7-0.1,1.1-0.2c0.7-0.2,1.3-0.5,2-0.8c0.2-0.1,0.4-0.3,0.6-0.4c0.3-0.6,0.5-1.3,0.7-2
		C34.3,23.5,32.9,20.5,30.6,19.4z"/>
</g>
<path id="InfrastructureasCode" class="st9" d="M45.8,35.6v-7.2H45v7.2H45.8z M48,35.6v-3.2c0-0.5,0.2-0.9,0.5-1.1
	c0.3-0.3,0.6-0.4,0.9-0.4c0.9,0,1.4,0.5,1.4,1.5v3.2h0.8v-3.2c0-1.4-0.7-2.2-2-2.2c-0.3,0-0.7,0.1-0.9,0.2c-0.3,0.2-0.5,0.4-0.7,0.7
	v-0.8h-0.8v5.2L48,35.6L48,35.6z M54.4,35.6V31h1.5v-0.7h-1.5v-0.6c0-0.3,0.1-0.4,0.2-0.5c0.1-0.1,0.3-0.2,0.5-0.2H56v-0.7h-1
	c-0.4,0-0.8,0.1-1,0.4c-0.2,0.2-0.3,0.6-0.3,1v0.6h-1.3V31h1.3v4.6C53.7,35.6,54.4,35.6,54.4,35.6z M57.4,35.6v-2.8
	c0-0.5,0.1-0.9,0.4-1.2c0.3-0.4,0.6-0.5,1-0.5c0.3,0,0.5,0,0.8,0.1v-0.8c-0.2-0.1-0.4-0.1-0.7-0.1c-0.4,0-0.7,0.1-1,0.3
	c-0.2,0.2-0.4,0.4-0.5,0.7v-0.9h-0.8v5.2H57.4z M61.9,35.8c0.5,0,0.9-0.1,1.3-0.3c0.3-0.2,0.6-0.4,0.8-0.7v0.9h0.8v-3.4
	c0-0.6-0.2-1.1-0.5-1.4c-0.4-0.4-0.9-0.6-1.7-0.6c-0.6,0-1.1,0.1-1.5,0.4s-0.7,0.7-0.8,1.2l0.8,0.1c0.1-0.3,0.3-0.6,0.5-0.8
	c0.2-0.2,0.6-0.2,0.9-0.2c0.9,0,1.4,0.4,1.4,1.3v0.3h-1.3c-0.8,0-1.4,0.2-1.8,0.4c-0.5,0.3-0.7,0.8-0.7,1.3c0,0.4,0.2,0.8,0.5,1.1
	C60.9,35.7,61.3,35.8,61.9,35.8z M62,35.1c-0.3,0-0.6-0.1-0.8-0.2C61,34.7,61,34.6,61,34.3c0-0.8,0.6-1.1,1.8-1.2H64v0.4
	c0,0.4-0.2,0.8-0.6,1.1C63,35,62.5,35.1,62,35.1z M67.9,35.8c1.5,0,2.2-0.5,2.2-1.6c0-0.5-0.2-0.8-0.6-1.1c-0.3-0.2-0.7-0.3-1.3-0.5
	c-0.5-0.1-0.9-0.3-1.1-0.3c-0.3-0.2-0.4-0.3-0.4-0.6c0-0.2,0.1-0.4,0.3-0.5c0.2-0.1,0.5-0.2,0.9-0.2s0.7,0.1,1,0.2
	c0.2,0.1,0.3,0.4,0.4,0.7H70c-0.1-1.1-0.9-1.6-2.1-1.6c-0.6,0-1.1,0.1-1.4,0.4c-0.4,0.3-0.6,0.6-0.6,1.1c0,0.4,0.2,0.8,0.6,1
	c0.2,0.2,0.7,0.3,1.3,0.5c0.6,0.1,0.9,0.3,1.1,0.3c0.3,0.2,0.5,0.4,0.5,0.7c0,0.6-0.5,0.9-1.4,0.9c-0.4,0-0.8-0.1-1-0.2
	c-0.2-0.2-0.4-0.5-0.4-0.9h-0.8C65.8,35.2,66.6,35.8,67.9,35.8z M73.7,35.6V35H73c-0.2,0-0.3-0.1-0.4-0.1c-0.1-0.1-0.1-0.2-0.1-0.4
	v-3.3h1.3v-0.7h-1.3v-1.7L71.7,29v1.4h-1.1v0.7h1.1v3.3c0,0.4,0.1,0.7,0.3,0.9c0.2,0.2,0.5,0.3,0.9,0.3
	C72.9,35.6,73.7,35.6,73.7,35.6z M75.5,35.6v-2.8c0-0.5,0.1-0.9,0.4-1.2c0.3-0.4,0.6-0.5,1-0.5c0.3,0,0.5,0,0.8,0.1v-0.8
	c-0.2-0.1-0.4-0.1-0.7-0.1c-0.4,0-0.7,0.1-1,0.3c-0.2,0.2-0.4,0.4-0.5,0.7v-0.9h-0.8v5.2H75.5z M80.3,35.8c0.7,0,1.3-0.3,1.7-1v0.8
	h0.8v-5.2H82v3.2c-0.1,0.4-0.2,0.8-0.5,1.1s-0.6,0.4-0.9,0.4c-0.5,0-0.8-0.1-1-0.4c-0.2-0.2-0.3-0.6-0.3-1.1v-3.2h-0.8v3.2
	C78.4,35.1,79,35.8,80.3,35.8z M86.3,35.8c0.6,0,1.2-0.2,1.6-0.5s0.7-0.9,0.8-1.5h-0.8c-0.1,0.9-0.6,1.4-1.5,1.4
	c-0.5,0-0.9-0.2-1.2-0.6c-0.3-0.4-0.4-0.9-0.4-1.5s0.1-1.1,0.4-1.5c0.3-0.4,0.7-0.6,1.2-0.6c0.4,0,0.8,0.1,1,0.3
	c0.3,0.2,0.4,0.5,0.5,0.9h0.8c-0.1-0.6-0.3-1.1-0.7-1.4c-0.4-0.3-0.9-0.5-1.6-0.5c-0.8,0-1.4,0.3-1.8,0.8s-0.6,1.2-0.6,2
	s0.2,1.5,0.6,1.9C84.9,35.5,85.6,35.8,86.3,35.8z M92.2,35.6V35h-0.7c-0.2,0-0.3-0.1-0.4-0.1C91,34.8,91,34.7,91,34.5v-3.3h1.3v-0.7
	H91v-1.7L90.2,29v1.4h-1.1v0.7h1.1v3.3c0,0.4,0.1,0.7,0.3,0.9c0.2,0.2,0.5,0.3,0.9,0.3C91.4,35.6,92.2,35.6,92.2,35.6z M95.2,35.8
	c0.7,0,1.3-0.3,1.7-1v0.8h0.8v-5.2h-0.8v3.2c-0.1,0.4-0.2,0.8-0.5,1.1s-0.6,0.4-0.9,0.4c-0.5,0-0.8-0.1-1-0.4
	c-0.2-0.2-0.3-0.6-0.3-1.1v-3.2h-0.8v3.2C93.2,35.1,93.9,35.8,95.2,35.8z M99.7,35.6v-2.8c0-0.5,0.1-0.9,0.4-1.2
	c0.3-0.4,0.6-0.5,1-0.5c0.3,0,0.5,0,0.8,0.1v-0.8c-0.2-0.1-0.4-0.1-0.7-0.1c-0.4,0-0.7,0.1-1,0.3c-0.2,0.2-0.4,0.4-0.5,0.7v-0.9
	h-0.8v5.2H99.7z M104.8,35.8c0.7,0,1.2-0.2,1.7-0.6c0.4-0.3,0.6-0.7,0.7-1.2h-0.8c-0.1,0.4-0.3,0.6-0.5,0.8c-0.3,0.2-0.6,0.3-1,0.3
	c-0.5,0-0.9-0.2-1.2-0.5c-0.3-0.3-0.4-0.8-0.5-1.4h4.1c0-0.9-0.2-1.6-0.6-2.1c-0.4-0.6-1.1-0.9-1.9-0.9s-1.4,0.3-1.8,0.8
	s-0.7,1.2-0.7,1.9c0,0.9,0.2,1.5,0.7,2C103.5,35.5,104.1,35.8,104.8,35.8z M106.5,32.6h-3.3c0.1-0.5,0.2-0.9,0.5-1.2
	s0.7-0.5,1.1-0.5C105.8,30.9,106.4,31.5,106.5,32.6z M113.2,35.8c0.5,0,0.9-0.1,1.3-0.3c0.3-0.2,0.6-0.4,0.8-0.7v0.9h0.8v-3.4
	c0-0.6-0.2-1.1-0.5-1.4c-0.4-0.4-0.9-0.6-1.7-0.6c-0.6,0-1.1,0.1-1.5,0.4s-0.7,0.7-0.8,1.2l0.8,0.1c0.1-0.3,0.3-0.6,0.5-0.8
	c0.2-0.2,0.6-0.2,0.9-0.2c0.9,0,1.4,0.4,1.4,1.3v0.3h-1.3c-0.8,0-1.4,0.2-1.8,0.4c-0.5,0.3-0.7,0.8-0.7,1.3c0,0.4,0.2,0.8,0.5,1.1
	C112.2,35.7,112.6,35.8,113.2,35.8z M113.3,35.1c-0.3,0-0.6-0.1-0.8-0.2c-0.2-0.2-0.3-0.4-0.3-0.6c0-0.8,0.6-1.1,1.8-1.2h1.2v0.4
	c0,0.4-0.2,0.8-0.6,1.1C114.3,35,113.8,35.1,113.3,35.1z M119.2,35.8c1.5,0,2.2-0.5,2.2-1.6c0-0.5-0.2-0.8-0.6-1.1
	c-0.3-0.2-0.7-0.3-1.3-0.5c-0.5-0.1-0.9-0.3-1.1-0.3c-0.3-0.2-0.4-0.3-0.4-0.6c0-0.2,0.1-0.4,0.3-0.5c0.2-0.1,0.5-0.2,0.9-0.2
	s0.7,0.1,1,0.2c0.2,0.1,0.3,0.4,0.4,0.7h0.8c-0.1-1.1-0.9-1.6-2.1-1.6c-0.6,0-1.1,0.1-1.4,0.4c-0.4,0.3-0.6,0.6-0.6,1.1
	c0,0.4,0.2,0.8,0.6,1c0.2,0.2,0.7,0.3,1.3,0.5c0.6,0.1,0.9,0.3,1.1,0.3c0.3,0.2,0.5,0.4,0.5,0.7c0,0.6-0.5,0.9-1.4,0.9
	c-0.4,0-0.8-0.1-1-0.2c-0.2-0.2-0.4-0.5-0.4-0.9h-1C117.1,35.2,117.9,35.8,119.2,35.8z M129,35.8c0.8,0,1.4-0.2,2-0.7s1-1.1,1.1-2
	h-0.8c-0.1,0.6-0.4,1.1-0.9,1.4c-0.4,0.3-0.9,0.5-1.5,0.5c-0.9,0-1.5-0.3-1.9-0.8s-0.6-1.2-0.6-2.1c0-0.9,0.2-1.6,0.6-2.2
	c0.5-0.6,1.1-0.9,1.9-0.9c0.6,0,1,0.1,1.4,0.4s0.7,0.7,0.8,1.2h0.8c-0.1-0.7-0.4-1.3-1-1.7c-0.5-0.4-1.2-0.6-2-0.6
	c-1.1,0-2,0.4-2.6,1.1s-0.8,1.6-0.8,2.6c0,1.1,0.3,1.9,0.8,2.6C127,35.4,127.9,35.8,129,35.8z M135.5,35.8c0.8,0,1.4-0.3,1.9-0.8
	c0.4-0.5,0.7-1.2,0.7-1.9c0-0.8-0.2-1.4-0.7-2c-0.5-0.5-1.1-0.8-1.9-0.8c-0.8,0-1.4,0.3-1.9,0.8c-0.4,0.5-0.7,1.2-0.7,2
	s0.2,1.4,0.7,1.9S134.7,35.8,135.5,35.8z M135.5,35.1c-0.6,0-1-0.2-1.3-0.6c-0.3-0.4-0.4-0.9-0.4-1.4c0-0.6,0.1-1.1,0.4-1.5
	c0.3-0.4,0.7-0.6,1.3-0.6c0.5,0,1,0.2,1.3,0.6s0.4,0.9,0.4,1.5s-0.1,1.1-0.4,1.4C136.5,34.9,136.1,35.1,135.5,35.1z M141.3,35.8
	c0.8,0,1.4-0.3,1.7-1v0.9h0.8v-7.4H143v3.1c-0.4-0.7-1-1.1-1.7-1.1s-1.3,0.3-1.8,0.8c-0.4,0.5-0.6,1.1-0.6,1.9s0.2,1.4,0.6,1.9
	C139.9,35.5,140.5,35.8,141.3,35.8z M141.4,35.1c-0.6,0-1-0.2-1.3-0.6c-0.3-0.4-0.4-0.9-0.4-1.5s0.1-1.1,0.4-1.5
	c0.3-0.4,0.7-0.6,1.3-0.6c0.5,0,0.9,0.2,1.1,0.6c0.3,0.4,0.4,0.9,0.4,1.5v0.1c0,0.6-0.1,1.1-0.4,1.4
	C142.3,34.9,141.9,35.1,141.4,35.1z M147.3,35.8c0.7,0,1.2-0.2,1.7-0.6c0.4-0.3,0.6-0.7,0.7-1.2h-0.8c-0.1,0.4-0.3,0.6-0.5,0.8
	c-0.3,0.2-0.6,0.3-1,0.3c-0.5,0-0.9-0.2-1.2-0.5s-0.4-0.8-0.5-1.4h4.1c0-0.9-0.2-1.6-0.6-2.1c-0.4-0.6-1.1-0.9-1.9-0.9
	c-0.8,0-1.4,0.3-1.8,0.8c-0.4,0.5-0.7,1.2-0.7,1.9c0,0.9,0.2,1.5,0.7,2C145.9,35.5,146.5,35.8,147.3,35.8z M148.9,32.6h-3.3
	c0.1-0.5,0.2-0.9,0.5-1.2c0.3-0.3,0.7-0.5,1.1-0.5C148.2,30.9,148.8,31.5,148.9,32.6z"/>
<g>
	<defs>
		<path id="SVGID_1_" d="M184.2,23.1h-8.1v-3.3h8.1V23.1z M176.1,25.2v-0.9h8.1v0.9h1.3v-6.7h-10.7v6.7H176.1z M186.2,17.8l1-0.9
			c-0.5-0.7-1.2-1.5-2.1-2.5c-0.9-1-1.6-1.8-2.1-2.3L182,13c0.5,0.5,1.2,1.2,2,2.2l-3.9,0.3c-1.7,0.1-3,0.2-3.9,0.3
			c0.6-0.5,1.2-1.2,2-2.1c0.8-0.9,1.4-1.8,2-2.6l-1.2-0.7c-0.5,0.8-1.3,1.8-2.2,2.8c-0.9,1.1-1.6,1.8-2.3,2.3
			c-0.1,0.1-0.3,0.2-0.5,0.2s-0.5,0.1-0.9,0.2l0.4,1.3l1.1-0.1c1.7-0.1,3.4-0.3,5.1-0.4s3.4-0.3,5.1-0.4l0.3,0.3
			C185.8,17.3,186.1,17.6,186.2,17.8z M161,18l1.1-0.7c-0.3-0.5-0.8-1.2-1.4-1.9c-0.6-0.8-1-1.4-1.4-1.8l-1,0.7
			c0.3,0.4,0.8,1,1.3,1.8C160.2,16.8,160.6,17.4,161,18z M167.3,18c0.4-0.4,0.8-1.1,1.4-1.9c0.6-0.8,1-1.4,1.3-1.9l-1-0.7
			c-0.3,0.5-0.7,1.1-1.3,1.9c-0.6,0.8-1,1.4-1.4,1.8L167.3,18z M164.8,25.1v-5.2h6.5v-1.2h-6.5v-6.1h5.9v-1.2h-13v1.2h5.9v6.1H157
			v1.2h6.5v5.2H164.8z M152.7,21.7v-1.2h-5.8v1.2H152.7z M145,23.1h-1.6v-5.6h1.6V23.1z M146.2,24.3v-8h-3c0.4-1,0.7-2.1,1-3.3h2.4
			v-1.2h-5.5V13h1.8c-0.2,1.1-0.5,2.1-1,3.2c-0.4,1.1-0.9,2-1.3,2.8l0.5,1.4c0.4-0.7,0.8-1.4,1.1-2v5.9H146.2z M152.5,25.1
			c0.5,0,0.9-0.1,1.2-0.2c0.3-0.1,0.5-0.4,0.6-0.7s0.3-0.8,0.3-1.5c0.2-1.7,0.4-3.5,0.4-5.2h-1.9l0.6-6h-6.4v1.2h5l-0.4,4.8H149
			l0.4-4l-1.2-0.1l-0.5,5.3h6.1c-0.1,1.4-0.2,2.7-0.4,3.8c-0.1,0.6-0.2,0.9-0.4,1.1c-0.2,0.2-0.5,0.3-1,0.3c-0.5,0-1.3-0.1-2.3-0.2
			l0.2,1.2C150.9,25,151.7,25.1,152.5,25.1z M137.2,14.1l0.8-0.9c-0.3-0.2-0.6-0.6-1.2-1c-0.5-0.4-1-0.8-1.4-1.1l-0.7,0.9
			c0.4,0.3,0.8,0.6,1.3,1.1C136.5,13.4,136.9,13.8,137.2,14.1z M128.3,25.1V14.8c0.6-1.2,1.1-2.4,1.5-3.7l-1.2-0.4
			c-0.4,1.4-1,2.8-1.7,4.1c-0.7,1.4-1.4,2.5-2.2,3.4l0.6,1.4c0.6-0.8,1.2-1.6,1.7-2.4v8H128.3z M136.8,25c0.4,0,0.8-0.1,1.1-0.4
			c0.3-0.3,0.6-0.8,0.8-1.4c0.2-0.7,0.4-1.4,0.5-2.2l-1.1-0.5c-0.1,0.7-0.3,1.3-0.4,1.9c-0.1,0.5-0.3,0.8-0.4,1
			c-0.1,0.2-0.3,0.2-0.5,0.2c-0.2,0-0.4-0.1-0.6-0.2s-0.4-0.3-0.6-0.6c-0.3-0.5-0.7-1.3-1-2.3c-0.3-1-0.5-2.3-0.7-3.7l5.3-0.5
			l-0.1-1.3l-5.4,0.5c-0.1-0.7-0.1-1.3-0.1-1.7l-0.1-3.2h-1.3l0.2,3.1c0,0.7,0.1,1.3,0.1,1.9l-3.4,0.3l0.1,1.2l3.4-0.3
			c0.4,3.1,1,5.3,1.9,6.6c0.4,0.6,0.8,0.9,1.1,1.2S136.4,25,136.8,25z M114.5,17.6H111v-2.1h3.5V17.6z M114.5,14.3H111v-2h3.5V14.3z
			 M118.6,25.1V12.7h2.7v7.7c0,0.4-0.1,0.7-0.2,0.9c-0.1,0.2-0.3,0.3-0.6,0.3c-0.4,0-0.9,0-1.3-0.1l0.2,1.3c0.5,0.1,1,0.1,1.6,0.1
			c0.5,0,0.9-0.1,1.1-0.4c0.2-0.3,0.3-0.8,0.3-1.5v-9.5h-5.2v13.7H118.6z M110,24.4l1-0.5c0.8-0.4,2-0.9,3.6-1.6
			c0.4,0.8,0.7,1.4,0.8,1.8l1.1-0.5c-0.3-0.7-0.7-1.5-1.2-2.4c-0.4-0.9-0.8-1.6-1.1-2l-1,0.5c0.4,0.7,0.6,1.2,0.8,1.5l-3,1.3v-3.9
			h4.7v-7.5h-5.9v11.2c0,0.2,0,0.3-0.1,0.5c-0.1,0.1-0.2,0.3-0.4,0.4L110,24.4z M103.3,25.1c0.7,0,1.3,0,1.8-0.1
			c0.5,0,0.9-0.1,1.2-0.3c0.3-0.1,0.5-0.3,0.7-0.6c0.1-0.3,0.2-0.6,0.3-1.1c0.1-0.6,0.1-1,0.1-1.1l-1.2-0.3c0,0.1,0,0.4,0,0.8
			c0,0.3-0.1,0.6-0.2,0.8c-0.1,0.2-0.2,0.3-0.4,0.4s-0.5,0.1-0.9,0.2c-0.6,0.1-1,0.1-1.4,0.1c-0.4,0-0.9,0-1.4-0.1
			c-0.3,0-0.6-0.1-0.7-0.2s-0.3-0.2-0.3-0.4c-0.1-0.2-0.1-0.5-0.1-0.9v-3.9l1.6-0.5v4.7h1.1v-5l2.1-0.6c0,0.9,0,1.7-0.1,2.5
			c0,0.3-0.1,0.6-0.2,0.7c-0.1,0.1-0.3,0.2-0.5,0.2c-0.3,0-0.5,0-0.7-0.1l0.2,1.1c0.3,0,0.7,0,1,0c0.5,0,0.8-0.1,1-0.3
			c0.2-0.2,0.3-0.6,0.4-1.2c0-0.4,0.1-1.1,0.1-2.1s0.1-1.9,0.1-2.4l-3.3,1v-2.2h-1.1v2.5l-1.6,0.5v-1.3h-1.1v1.6l-1.2,0.4l0.3,1.1
			l0.9-0.3v4c0,0.8,0.2,1.4,0.5,1.7s0.8,0.5,1.5,0.6C102,25,102.6,25.1,103.3,25.1z M93.9,25.2c0.4-0.9,0.7-1.7,0.8-2.4
			c0.2-0.7,0.3-1.4,0.4-2.3c0.1-0.8,0.1-1.9,0.1-3.1h1.5v0.8c0,1.6-0.1,3.1-0.2,4.5c0,0.4-0.1,0.6-0.2,0.7c-0.1,0.1-0.3,0.2-0.5,0.2
			c-0.2,0-0.5,0-0.8-0.1l0.2,1.2c0.3,0,0.6,0.1,0.7,0.1c0.6,0,1-0.1,1.2-0.3s0.4-0.6,0.4-1.1c0.1-0.7,0.1-1.9,0.2-3.3s0.1-2.7,0-3.6
			h-2.6v-2.1h3v-1.2h-1.7c0-0.1-0.1-0.3-0.1-0.4c0-0.1-0.1-0.2-0.1-0.3c-0.1-0.5-0.3-1.1-0.4-1.7l-1.2,0.2l0.1,0.5
			c0.1,0.2,0.1,0.5,0.2,0.8s0.2,0.7,0.2,1h-2.3v1.2h1.2v2.6c0,1.3,0,2.3-0.1,3.2c-0.1,0.9-0.2,1.6-0.4,2.3c-0.2,0.7-0.5,1.5-0.8,2.3
			L93.9,25.2z M99.1,15.9c0.5-0.7,1-1.4,1.5-2.3h6.6v-1.2h-6c0.2-0.5,0.5-1.1,0.7-1.7l-1.2-0.3c-0.6,1.7-1.4,3.2-2.6,4.8L99.1,15.9z
			 M86.5,21.3c-0.9-0.8-1.6-1.7-2.2-2.9h4.4C88.3,19.5,87.6,20.5,86.5,21.3z M81.9,25.2c1.9-0.7,3.4-1.5,4.6-2.3
			c1.1,0.8,2.6,1.6,4.4,2.3l0.6-1.2c-1.7-0.5-3-1.2-4-1.8c1.2-1,2.1-2.3,2.7-3.7v-1.2h-8v1.2H83c0.6,1.4,1.4,2.7,2.5,3.6
			c-1.2,0.8-2.6,1.4-4.2,2L81.9,25.2z M79.3,24.8c0.4-0.3,0.6-0.6,0.8-0.7l2.6-2.1l-0.6-1.1c-0.2,0.2-0.6,0.5-1,0.8
			c-0.4,0.3-0.7,0.6-0.9,0.7v-6.7h-3.3v1.2H79v6c0,0.2,0,0.4-0.1,0.5c-0.1,0.1-0.2,0.3-0.4,0.5L79.3,24.8z M82.5,16.8
			c0.9-0.6,1.6-1.1,1.9-1.7c0.4-0.5,0.5-1.1,0.5-1.7v-1h2.9v2.4c0,0.5,0.1,0.9,0.4,1.1c0.3,0.2,0.7,0.3,1.3,0.3h1.6l0.2-1.2h-1.6
			c-0.2,0-0.3,0-0.4-0.1s-0.1-0.2-0.1-0.5v-3.1h-5.4v1.6c0,0.4-0.1,0.8-0.2,1.1c-0.1,0.3-0.3,0.6-0.6,0.9c-0.3,0.3-0.8,0.6-1.4,1
			L82.5,16.8z M80.6,14.3l0.9-1c-0.5-0.5-1-1-1.5-1.5c-0.5-0.5-1-0.9-1.3-1.1l-0.8,0.9c0.4,0.3,0.8,0.7,1.4,1.3
			C79.8,13.4,80.3,13.9,80.6,14.3z M64.8,22.9h-1.6v-5.4h1.6V22.9z M65.9,24.1v-7.8h-2.5c0.4-0.9,0.7-2,1-3.2h2.2v-1.2H61V13h2.2
			c-0.2,1-0.6,2.1-1,3.2c-0.5,1.1-1,2.1-1.5,3l0.6,1.2c0.3-0.4,0.6-0.9,0.9-1.4v5.2H65.9z M74.6,25.1v-6.4h-1.2v4.4h-2v-5.5h2.9V12
			h-1.1v4.5h-1.8v-6h-1.2v6h-1.8V12h-1.1v5.7h2.9v5.5h-2v-4.4h-1.2v5.6h6.4v0.7H74.6z M58.7,24.6v-1.1h-5.9v-1.3h3.1v-1h-3.1v-1.5
			h-1.2v1.5h-3.2v1h3.2v1.3h-6v1.1H58.7z M55.2,18.1H49v-1h6.2V18.1z M55.2,16.1H49v-1h6.2V16.1z M55.2,14H49v-1h6.2V14z M45.3,23
			c1.1-0.5,2.1-1.1,3-1.8s1.5-1.4,2-2.1H54c0.6,0.8,1.3,1.6,2.1,2.1s1.7,1.1,2.9,1.6l0.5-1.1c-1-0.4-1.8-0.8-2.4-1.2
			c-0.6-0.4-1.2-0.9-1.7-1.5h3.9v-1h-2.9V13h2.3v-1h-2.3v-1.2h-1.2V12H49v-1.2h-1.2V12h-2.3v1h2.3v5.1h-2.8v1h3.9
			c-0.9,1.1-2.3,2-4.1,2.8L45.3,23z"/>
	</defs>
	<clipPath id="SVGID_2_">
		<use xlink:href="#SVGID_1_"  style="overflow:visible;"/>
	</clipPath>
	<rect x="39.7" y="5.3" class="st10" width="152.5" height="24.9"/>
</g>
</svg>
