<?xml version="1.0" encoding="UTF-8"?>
<svg width="200px" height="48px" viewBox="0 0 200 48" version="1.1" xmlns="http://www.w3.org/2000/svg" xmlns:xlink="http://www.w3.org/1999/xlink">
    <title>laC-logo</title>
    <defs>
        <linearGradient x1="0.000262405206%" y1="50.0000549%" x2="100.00042%" y2="50.0000549%" id="linearGradient-1">
            <stop stop-color="#7373A3" offset="0%"></stop>
            <stop stop-color="#80B8DA" offset="100%"></stop>
        </linearGradient>
        <linearGradient x1="0.000171521683%" y1="50.0000549%" x2="100.001029%" y2="50.0000549%" id="linearGradient-2">
            <stop stop-color="#2EE8E8" offset="0%"></stop>
            <stop stop-color="#2069DA" offset="100%"></stop>
        </linearGradient>
        <linearGradient x1="15.2775127%" y1="58.1748192%" x2="75.9257981%" y2="36.820059%" id="linearGradient-3">
            <stop stop-color="#2EE8E8" offset="0%"></stop>
            <stop stop-color="#2069DA" offset="100%"></stop>
        </linearGradient>
        <linearGradient x1="0.000398994534%" y1="50.0001644%" x2="99.999468%" y2="50.0001644%" id="linearGradient-4">
            <stop stop-color="#2EE8E8" offset="0%"></stop>
            <stop stop-color="#2069DA" offset="100%"></stop>
        </linearGradient>
        <linearGradient x1="90.0333611%" y1="-1719.95032%" x2="50.3336113%" y2="35.4416293%" id="linearGradient-5">
            <stop stop-color="#1968A1" offset="0%"></stop>
            <stop stop-color="#80B8DA" offset="100%"></stop>
        </linearGradient>
        <linearGradient x1="-5089.3652%" y1="-889.44%" x2="15612.1069%" y2="2894.76%" id="linearGradient-6">
            <stop stop-color="#80C5CC" offset="0%"></stop>
            <stop stop-color="#2F6DAE" offset="100%"></stop>
        </linearGradient>
        <linearGradient x1="-748.404645%" y1="26.7863912%" x2="2692.70081%" y2="126.838714%" id="linearGradient-7">
            <stop stop-color="#80C5CC" offset="0%"></stop>
            <stop stop-color="#2F6DAE" offset="100%"></stop>
        </linearGradient>
        <linearGradient x1="6.00593531%" y1="56.8410886%" x2="80.4776125%" y2="29.7531307%" id="linearGradient-8">
            <stop stop-color="#2EE8E8" offset="0%"></stop>
            <stop stop-color="#2069DA" offset="100%"></stop>
        </linearGradient>
        <linearGradient x1="49.6508458%" y1="60.5004164%" x2="50.3761497%" y2="41.0540892%" id="linearGradient-9">
            <stop stop-color="#2EE8E8" offset="0%"></stop>
            <stop stop-color="#2BCDE5" offset="20.94%"></stop>
            <stop stop-color="#2069DA" offset="100%"></stop>
        </linearGradient>
    </defs>
    <g id="laC-logo" stroke="none" stroke-width="1" fill="none" fill-rule="evenodd">
        <g id="左侧logo" transform="translate(0.000000, 4.000000)" fill-rule="nonzero">
            <g id="XMLID_183_" transform="translate(0.200000, 5.000000)">
                <path d="M18.5591217,0 C15.0431929,0 11.9437745,1.81476904 10.103181,4.57689163 C9.463727,5.53658536 8.97510979,6.6097431 8.67525223,7.76196527 C8.57109792,8.16220167 8.49033828,8.57204812 8.43254599,8.98953891 C8.60891395,9.76281967 9.01132344,10.4826992 9.58967359,11.1165251 C10.5312285,11.2261669 11.4048427,11.5645933 12.1517626,12.0822251 C12.0347893,11.579882 11.9711217,11.0564623 11.9711217,10.5175356 C11.9711217,9.78728159 12.0862789,9.0848749 12.2966172,8.42636862 C13.1574125,5.73097029 15.6351098,3.78275272 18.5592285,3.78275272 C20.9637507,3.78275272 23.0665994,5.10020209 24.2168902,7.06687531 C24.8072047,8.07614812 25.1473353,9.25610837 25.1473353,10.5175356 C25.1473353,11.1594427 25.0576024,11.779618 24.8935193,12.3677962 C24.4162255,14.0784929 23.294457,15.5101707 21.8130089,16.3724536 C21.150908,16.6419715 20.6822671,17.3017883 20.6822671,18.0747414 C20.6822671,19.087072 21.4850564,19.9077477 22.4753234,19.9077477 C22.7036083,19.9077477 22.9212107,19.8624276 23.1220415,19.7828172 C23.1778042,19.7700402 23.231003,19.7543146 23.2771513,19.7316 C23.3146469,19.7115063 23.3524629,19.6918494 23.3897448,19.6713188 C23.4331157,19.6474029 23.4764866,19.6233778 23.5194303,19.5989159 C23.5861958,19.5609126 23.6523205,19.5219264 23.7181246,19.4823941 C23.7589318,19.4579322 23.7999525,19.4335795 23.840546,19.4085715 C23.9114777,19.3646711 23.9815549,19.319351 24.0514184,19.2738126 C24.0850682,19.2518623 24.1192522,19.2304582 24.1525816,19.2080711 C24.2551335,19.1393812 24.356724,19.0691623 24.4567122,18.9968686 C25.9408309,17.9238201 27.1322493,16.4577427 27.8867537,14.7456264 C28.3593472,13.6734515 28.6597389,12.505613 28.7531039,11.2778209 C28.7737211,11.0064464 28.7875015,10.7331063 28.7875015,10.4562715 C28.7875015,4.68140084 24.2081306,0 18.5591217,0 Z" id="XMLID_192_" fill="url(#linearGradient-1)"></path>
                <path d="M18.5591217,0 C15.0431929,0 11.9437745,1.81476904 10.103181,4.57689163 C11.5717033,3.30039414 13.8202611,2.48310377 16.3422908,2.48310377 C20.2644748,2.48310377 23.5260534,4.45862259 24.2167834,7.06687531 C24.8070979,8.07614812 25.1472285,9.25610837 25.1472285,10.5175356 C25.1472285,11.1594427 25.0574955,11.779618 24.8934125,12.3677962 C24.4161187,14.0784929 23.2943501,15.5101707 21.8129021,16.3724536 C21.1508012,16.6419715 20.6821602,17.3017883 20.6821602,18.0747414 C20.6821602,19.087072 21.4849496,19.9077477 22.4752166,19.9077477 C22.7035015,19.9077477 22.9211039,19.8624276 23.1219347,19.7828172 C23.1776973,19.7700402 23.2308961,19.7543146 23.2770445,19.7316 C23.3145401,19.7115063 23.3523561,19.6918494 23.389638,19.6713188 C23.4330089,19.6474029 23.4763798,19.6233778 23.5193234,19.5989159 C23.586089,19.5609126 23.6522136,19.5219264 23.7180178,19.4823941 C23.7588249,19.4579322 23.7998457,19.4335795 23.8404392,19.4085715 C23.9113709,19.3646711 23.9814481,19.319351 24.0513116,19.2738126 C24.0849614,19.2518623 24.1191454,19.2304582 24.1524748,19.2080711 C24.2550267,19.1393812 24.3566172,19.0691623 24.4566053,18.9968686 C25.940724,17.9238201 27.1321424,16.4577427 27.8866469,14.7456264 C28.3592404,13.6734515 28.659632,12.505613 28.752997,11.2778209 C28.7736142,11.0064464 28.7873947,10.7331063 28.7873947,10.4562715 C28.7876083,4.68140084 24.2081306,0 18.5591217,0 Z" id="XMLID_191_" fill="url(#linearGradient-2)"></path>
                <path d="M16.3422908,2.48310377 C13.8202611,2.48310377 11.5718101,3.30039414 10.103181,4.57689163 C9.463727,5.53658536 8.97510979,6.6097431 8.67525223,7.76196527 C8.57109792,8.16220167 8.49033828,8.57204812 8.43254599,8.98953891 C8.60891395,9.76281967 9.01132344,10.4826992 9.58967359,11.1165251 C10.5312285,11.2261669 11.4048427,11.5645933 12.1517626,12.0822251 C12.0347893,11.579882 11.9711217,11.0564623 11.9711217,10.5175356 C11.9711217,9.78728159 12.0862789,9.0848749 12.2966172,8.42636862 C13.1574125,5.73097029 15.6351098,3.78275272 18.5592285,3.78275272 C20.9637507,3.78275272 23.0665994,5.10020209 24.2168902,7.06687531 C23.5260534,4.4587318 20.2644748,2.48310377 16.3422908,2.48310377 Z" id="XMLID_190_" fill="url(#linearGradient-3)"></path>
                <path d="M28.7532107,11.2778209 C28.6597389,12.505613 28.3593472,13.6734515 27.8867537,14.7456264 C28.058635,14.7223657 28.2337211,14.7091519 28.411905,14.7091519 C29.1997389,14.7091519 29.9331988,14.9451439 30.5502196,15.3504038 C32.9103027,16.5283983 34.2869555,19.4651397 33.727727,22.5499632 C33.5968665,23.2720268 33.3684748,23.9468046 33.0638101,24.5613013 C33.4211395,24.2825008 33.7560356,23.9735598 34.0571751,23.6321849 C34.5267774,23.0998105 34.9205341,22.4980908 35.2214599,21.8506142 C35.5293294,21.188395 35.7392404,20.4795452 35.8427537,19.7540962 C35.8936024,19.397651 35.9188131,19.0374929 35.9188131,18.6773347 C35.9188131,14.6152356 32.71727,11.3189912 28.7532107,11.2778209 Z" id="XMLID_189_" fill="url(#linearGradient-4)"></path>
                <path d="M5.10259941,25.1403063 C5.22929377,25.2016795 5.35748368,25.259995 5.48684866,25.3152527 L5.48684866,25.3152527 L5.48684866,25.3152527 C5.35748368,25.2598858 5.22929377,25.2016795 5.10259941,25.1403063 Z" id="XMLID_188_" fill="url(#linearGradient-5)"></path>
                <path d="M9.19185757,22.7764544 L9.19185757,22.7764544 C9.15778042,22.7764544 9.12381009,22.7764544 9.08973294,22.7765636 L9.08973294,22.7765636 C9.12370326,22.7765636 9.15778042,22.7764544 9.19185757,22.7764544 Z" id="XMLID_187_" fill="url(#linearGradient-6)"></path>
                <path d="M9.08973294,22.7765636 L9.08973294,22.7765636 C8.86593472,22.7765636 8.64202967,22.776782 8.41812463,22.7768912 L8.41812463,22.7768912 C8.64202967,22.776782 8.86582789,22.7765636 9.08973294,22.7765636 Z" id="XMLID_186_" fill="url(#linearGradient-7)"></path>
                <path d="M16.8755608,12.7029464 C15.9012107,10.7760238 14.2760831,9.24911925 12.2966172,8.42647782 C11.2585994,7.99500879 10.1243323,7.75530377 8.93472997,7.75530377 C8.84777448,7.75530377 8.76167359,7.75956276 8.67535905,7.76207448 C3.86108012,7.90273054 0,11.9334879 0,16.8891025 C0,18.0108565 0.201151335,19.1303172 0.596510386,20.1769381 C0.819881306,20.7682833 1.10585163,21.3337469 1.44395252,21.8647017 C0.985780415,20.7885954 0.787940653,19.549446 0.919121662,18.2658502 C0.939311573,18.0682983 0.966124629,17.8697636 1.00223145,17.6703552 C1.00233828,17.6697 1.00255193,17.6690448 1.00255193,17.6690448 C1.02957864,17.5204167 1.06173294,17.3751741 1.09645104,17.2312418 C1.10670623,17.1887611 1.11802967,17.1468264 1.12892582,17.1047824 C1.15648665,16.9985259 1.18618398,16.8934707 1.2180178,16.7896167 C1.23062315,16.7483372 1.24290801,16.7067301 1.2561543,16.6659967 C1.30091395,16.5279615 1.34823739,16.3914552 1.4001543,16.2581159 C1.40047478,16.2574607 1.40068843,16.2568054 1.4010089,16.2559318 C1.45303264,16.1224833 1.50975668,15.9922017 1.56861721,15.8636674 C1.58624332,15.8248996 1.60493769,15.7870054 1.62320475,15.7488929 C1.66807122,15.6553042 1.71475371,15.5629167 1.7631454,15.471949 C1.78290801,15.43471 1.80245697,15.3973619 1.82286053,15.360669 C1.89048071,15.2390146 1.96002374,15.1191075 2.03373294,15.0029134 C2.13382789,14.8450029 2.24043917,14.6935356 2.35164392,14.5469824 C2.36254006,14.5325674 2.3738635,14.5186983 2.38486647,14.5045017 C2.49372107,14.3634088 2.60642136,14.2264657 2.72382196,14.0953105 C2.79325816,14.0176657 2.86472404,13.9428603 2.93693769,13.8689285 C3.04643323,13.7575393 3.15924036,13.6507368 3.27525223,13.5485209 C3.36178042,13.4725142 3.45151335,13.4018586 3.54145994,13.3315305 C3.61484866,13.2736519 3.68781009,13.2152272 3.76322849,13.1609523 C3.81717507,13.1218569 3.87080119,13.0821063 3.92560237,13.0447582 C4.02324036,12.9792351 4.12151929,12.9150226 4.22214837,12.8558335 C4.59037389,12.6393891 4.97772107,12.4653163 5.37820772,12.3384201 C6.21304451,11.6636423 7.23493175,11.2199423 8.35221365,11.1048402 C8.54375074,11.0851833 8.73806528,11.074918 8.93472997,11.074918 C10.1268961,11.074918 11.2341365,11.4465427 12.1517626,12.0826619 C12.944724,12.6321816 13.5942196,13.3801268 14.0356202,14.2557326 C14.2427537,14.9391377 14.8657567,15.4356929 15.6023145,15.4356929 C16.5080831,15.4356929 17.2422908,14.6850176 17.2422908,13.7590682 C17.2422908,13.358395 17.1045935,12.9911385 16.8755608,12.7029464 Z" id="XMLID_185_" fill="url(#linearGradient-8)"></path>
                <path d="M30.5502196,15.3504038 C31.6470979,16.0708293 32.374362,17.3281067 32.374362,18.7598937 C32.374362,19.5151556 32.1659466,20.2634285 31.7741128,20.9039159 C31.3921068,21.528241 30.8435608,22.0412862 30.2010089,22.3741431 C29.9012582,22.5294326 29.583454,22.6427874 29.2557151,22.7179205 C28.8418754,22.8128197 27.1634421,22.7765636 26.7527003,22.7765636 C26.704095,22.7765636 26.6555964,22.7765636 26.6069911,22.7765636 C26.0477626,22.7765636 25.4884273,22.7765636 24.9291988,22.7765636 C24.1746944,22.7765636 23.4201899,22.7765636 22.6656855,22.7765636 C22.5331157,22.7765636 22.400546,22.7765636 22.2679763,22.7765636 C21.807454,22.7765636 21.3470386,22.7765636 20.8865163,22.7765636 C20.6339822,22.7765636 20.3815549,22.7765636 20.1290208,22.7765636 C19.2480356,22.7765636 18.3671573,22.7765636 17.4861721,22.7765636 C16.6254837,22.7765636 15.7647953,22.7765636 14.9041068,22.7765636 C14.1193709,22.7765636 13.3345282,22.7765636 12.5496855,22.7765636 C12.0964273,22.7765636 11.6431691,22.7765636 11.189911,22.7765636 C10.9899347,22.7765636 10.7899585,22.7765636 10.5899822,22.7765636 C10.123905,22.7765636 9.65782789,22.7765636 9.19175074,22.7765636 C9.15767359,22.7765636 9.12370326,22.7765636 9.08962611,22.7766728 C8.86582789,22.7766728 8.64192285,22.7768912 8.4180178,22.7770004 L8.4180178,22.7770004 C7.87385163,22.7774372 7.28994659,22.5917887 6.78893769,22.3853912 C6.66491395,22.3342833 6.54270623,22.2786979 6.42252819,22.2188536 C6.30235015,22.1590092 6.18420178,22.0947967 6.06851039,22.0264343 C5.83691395,21.8898188 5.6147181,21.7367134 5.40395252,21.5684285 C5.19340059,21.4003619 4.99481306,21.2173343 4.80947181,21.0214205 C4.62423739,20.8253975 4.45224926,20.6164883 4.29510979,20.3964402 C4.13797033,20.1763921 3.99578635,19.9453142 3.86983976,19.7051724 C3.74389318,19.4649213 3.6342908,19.2156063 3.54242136,18.9590837 C3.51357864,18.8784904 3.4864451,18.7972418 3.46123442,18.7154473 C3.3852819,18.4700636 3.32556677,18.2197657 3.28187537,17.9665192 C3.25281899,17.7976883 3.23091988,17.6275469 3.21639169,17.456641 C3.20175668,17.2858444 3.19449258,17.1142833 3.19449258,16.9427222 C3.19449258,15.0754255 4.04855786,13.4128883 5.37820772,12.3382017 C3.2421365,13.0151636 1.48037982,15.0328356 1.00223145,17.6705736 C0.934504451,18.0440548 0.895299703,18.4152427 0.882694362,18.7815163 C0.866991098,19.2393038 0.892949555,19.6892285 0.95725816,20.1257209 C0.983002967,20.3003397 1.01494362,20.4727745 1.05275964,20.6426975 C1.12839169,20.9825435 1.22773887,21.3124519 1.34898516,21.6294741 C1.37932344,21.7087569 1.41105045,21.7871661 1.44405935,21.8648109 C1.4742908,21.9122059 1.50612463,21.958618 1.53721068,22.0054669 C1.75449258,22.3337372 1.99036202,22.6492305 2.24781009,22.9459406 C2.95039763,23.7556958 3.79324629,24.4366983 4.72700297,24.9471226 C4.85070623,25.0147205 4.97611869,25.0792607 5.10281306,25.1406339 C5.22950742,25.2020071 5.35769733,25.2603226 5.48706231,25.3155803 C6.228,25.6322749 7.01017211,25.8468628 7.80751335,25.9494063 C8.07414837,25.9836967 8.65858754,26.0162397 9.08983976,26.035023 C9.32763205,26.0453975 9.51959644,26.0517314 9.58443917,26.0517314 C10.1023264,26.0517314 10.6203205,26.0517314 11.1383145,26.0517314 C11.8175074,26.0517314 12.4967003,26.0517314 13.1758932,26.0517314 C13.9651157,26.0517314 14.7542315,26.0517314 15.5433472,26.0517314 C16.3911098,26.0517314 17.2387656,26.0517314 18.0864214,26.0517314 C18.9414481,26.0517314 19.796368,26.0517314 20.6512878,26.0517314 C20.7298042,26.0517314 20.8082136,26.0517314 20.88673,26.0517314 C21.6191217,26.0517314 22.3514065,26.0517314 23.0837982,26.0517314 C23.2659347,26.0517314 23.4480712,26.0517314 23.6302077,26.0517314 C24.1633709,26.0517314 24.6966409,26.0517314 25.229911,26.0517314 C25.6889377,26.0517314 26.1480712,26.0517314 26.6072047,26.0517314 C26.7167003,26.0517314 26.8261958,26.0517314 26.9356914,26.0517314 C27.3061602,26.0517314 27.6765223,26.0517314 28.0469911,26.0517314 C28.5051632,26.0517314 28.9677151,26.0882059 29.4240712,26.0404833 C29.7861009,26.0025891 30.1453531,25.9368477 30.4977685,25.8436958 C31.184546,25.6620879 31.8441899,25.3757523 32.4494599,24.9974661 C32.662362,24.8644544 32.865543,24.7163724 33.0639169,24.5617381 C33.3684748,23.9472414 33.5969733,23.2724636 33.7278338,22.5504 C34.2868487,19.4651397 32.9101958,16.5283983 30.5502196,15.3504038 Z" id="XMLID_184_" fill="url(#linearGradient-9)"></path>
            </g>
            <g id="Group-18" transform="translate(44.000000, 0.000000)" fill="#FFFFFF">
                <path d="M1.908,36 L1.908,27.432 L0.936,27.432 L0.936,36 L1.908,36 Z M4.548,36 L4.548,32.256 C4.584,31.692 4.764,31.248 5.1,30.912 C5.412,30.6 5.784,30.444 6.216,30.444 C7.296,30.444 7.848,31.044 7.848,32.256 L7.848,36 L8.808,36 L8.808,32.184 C8.808,30.48 8.028,29.628 6.492,29.628 C6.084,29.628 5.712,29.724 5.376,29.916 C5.04,30.096 4.764,30.36 4.548,30.708 L4.548,29.796 L3.588,29.796 L3.588,36 L4.548,36 Z M12.132,36 L12.132,30.6 L13.884,30.6 L13.884,29.796 L12.132,29.796 L12.132,29.112 C12.132,28.812 12.192,28.596 12.312,28.464 C12.432,28.32 12.636,28.26 12.9,28.26 L13.968,28.26 L13.968,27.432 L12.78,27.432 C12.252,27.432 11.844,27.576 11.568,27.876 C11.304,28.164 11.172,28.56 11.172,29.088 L11.172,29.796 L9.612,29.796 L9.612,30.6 L11.172,30.6 L11.172,36 L12.132,36 Z M15.72,36 L15.72,32.712 C15.72,32.136 15.876,31.644 16.212,31.236 C16.536,30.804 16.944,30.6 17.424,30.6 C17.724,30.6 18.036,30.636 18.348,30.732 L18.348,29.772 C18.12,29.676 17.832,29.628 17.496,29.628 C17.064,29.628 16.692,29.76 16.368,30.024 C16.104,30.228 15.888,30.516 15.72,30.876 L15.72,29.796 L14.772,29.796 L14.772,36 L15.72,36 Z M20.976,36.168 C21.552,36.168 22.068,36.036 22.524,35.784 C22.908,35.568 23.232,35.292 23.472,34.956 L23.472,36 L24.372,36 L24.372,32.016 C24.372,31.296 24.18,30.732 23.82,30.324 C23.388,29.856 22.74,29.628 21.852,29.628 C21.108,29.628 20.52,29.772 20.064,30.06 C19.56,30.372 19.236,30.864 19.104,31.512 L20.052,31.584 C20.148,31.188 20.352,30.888 20.676,30.696 C20.964,30.504 21.336,30.42 21.792,30.42 C22.872,30.42 23.412,30.936 23.412,31.98 L23.412,32.304 L21.924,32.328 C20.988,32.34 20.268,32.52 19.764,32.856 C19.188,33.216 18.912,33.744 18.912,34.452 C18.912,34.956 19.104,35.376 19.488,35.7 C19.86,36.012 20.352,36.168 20.976,36.168 Z M21.18,35.412 C20.796,35.412 20.484,35.316 20.244,35.136 C20.004,34.944 19.896,34.716 19.896,34.428 C19.896,33.528 20.592,33.072 21.984,33.048 L23.412,33.024 L23.412,33.552 C23.412,34.032 23.184,34.464 22.74,34.836 C22.284,35.22 21.768,35.412 21.18,35.412 Z M28.164,36.168 C29.916,36.168 30.792,35.52 30.792,34.248 C30.792,33.708 30.54,33.288 30.048,32.976 C29.724,32.772 29.196,32.58 28.452,32.4 C27.828,32.232 27.396,32.1 27.168,31.992 C26.808,31.812 26.64,31.584 26.64,31.32 C26.64,31.044 26.772,30.828 27.036,30.672 C27.276,30.504 27.612,30.432 28.044,30.432 C28.536,30.432 28.92,30.528 29.184,30.72 C29.424,30.888 29.58,31.176 29.664,31.56 L30.6,31.56 C30.432,30.264 29.592,29.628 28.056,29.628 C27.36,29.628 26.784,29.784 26.352,30.096 C25.884,30.408 25.656,30.816 25.656,31.344 C25.656,31.872 25.884,32.268 26.364,32.556 C26.652,32.748 27.168,32.928 27.9,33.108 C28.572,33.276 29.016,33.408 29.22,33.504 C29.604,33.696 29.808,33.96 29.808,34.308 C29.808,35.004 29.244,35.364 28.14,35.364 C27.612,35.364 27.216,35.268 26.952,35.076 C26.688,34.86 26.508,34.512 26.436,34.02 L25.5,34.02 C25.644,35.448 26.532,36.168 28.164,36.168 Z M34.956,36 L34.956,35.196 L34.164,35.196 C33.948,35.196 33.792,35.136 33.708,35.04 C33.612,34.944 33.576,34.776 33.576,34.548 L33.576,30.6 L35.112,30.6 L35.112,29.796 L33.576,29.796 L33.576,27.792 L32.628,28.188 L32.628,29.796 L31.38,29.796 L31.38,30.6 L32.628,30.6 L32.628,34.548 C32.628,35.016 32.724,35.364 32.928,35.604 C33.144,35.868 33.516,36 34.02,36 L34.956,36 Z M37.128,36 L37.128,32.712 C37.128,32.136 37.284,31.644 37.62,31.236 C37.944,30.804 38.352,30.6 38.832,30.6 C39.132,30.6 39.444,30.636 39.756,30.732 L39.756,29.772 C39.528,29.676 39.24,29.628 38.904,29.628 C38.472,29.628 38.1,29.76 37.776,30.024 C37.512,30.228 37.296,30.516 37.128,30.876 L37.128,29.796 L36.18,29.796 L36.18,36 L37.128,36 Z M42.816,36.168 C43.656,36.168 44.328,35.784 44.832,35.04 L44.832,36 L45.792,36 L45.792,29.796 L44.832,29.796 L44.832,33.576 C44.76,34.104 44.556,34.536 44.22,34.872 C43.896,35.184 43.524,35.352 43.116,35.352 C42.552,35.352 42.144,35.196 41.892,34.908 C41.64,34.62 41.52,34.176 41.52,33.588 L41.52,29.796 L40.56,29.796 L40.56,33.636 C40.56,35.316 41.304,36.168 42.816,36.168 Z M49.944,36.168 C50.712,36.168 51.324,35.964 51.792,35.568 C52.272,35.16 52.572,34.548 52.716,33.756 L51.756,33.756 C51.612,34.824 51,35.364 49.944,35.364 C49.32,35.364 48.84,35.136 48.516,34.704 C48.18,34.272 48.024,33.672 48.024,32.916 C48.024,32.16 48.192,31.56 48.528,31.116 C48.876,30.66 49.356,30.432 49.956,30.432 C50.448,30.432 50.844,30.54 51.156,30.78 C51.456,31.02 51.648,31.38 51.732,31.86 L52.68,31.86 C52.572,31.104 52.284,30.54 51.804,30.168 C51.336,29.808 50.724,29.628 49.956,29.628 C49.032,29.628 48.3,29.952 47.772,30.612 C47.28,31.212 47.04,31.98 47.04,32.928 C47.04,33.876 47.28,34.644 47.772,35.232 C48.288,35.856 49.008,36.168 49.944,36.168 Z M56.88,36 L56.88,35.196 L56.088,35.196 C55.872,35.196 55.716,35.136 55.632,35.04 C55.536,34.944 55.5,34.776 55.5,34.548 L55.5,30.6 L57.036,30.6 L57.036,29.796 L55.5,29.796 L55.5,27.792 L54.552,28.188 L54.552,29.796 L53.304,29.796 L53.304,30.6 L54.552,30.6 L54.552,34.548 C54.552,35.016 54.648,35.364 54.852,35.604 C55.068,35.868 55.44,36 55.944,36 L56.88,36 Z M60.36,36.168 C61.2,36.168 61.872,35.784 62.376,35.04 L62.376,36 L63.336,36 L63.336,29.796 L62.376,29.796 L62.376,33.576 C62.304,34.104 62.1,34.536 61.764,34.872 C61.44,35.184 61.068,35.352 60.66,35.352 C60.096,35.352 59.688,35.196 59.436,34.908 C59.184,34.62 59.064,34.176 59.064,33.588 L59.064,29.796 L58.104,29.796 L58.104,33.636 C58.104,35.316 58.848,36.168 60.36,36.168 Z M65.772,36 L65.772,32.712 C65.772,32.136 65.928,31.644 66.264,31.236 C66.588,30.804 66.996,30.6 67.476,30.6 C67.776,30.6 68.088,30.636 68.4,30.732 L68.4,29.772 C68.172,29.676 67.884,29.628 67.548,29.628 C67.116,29.628 66.744,29.76 66.42,30.024 C66.156,30.228 65.94,30.516 65.772,30.876 L65.772,29.796 L64.824,29.796 L64.824,36 L65.772,36 Z M71.796,36.168 C72.6,36.168 73.26,35.928 73.776,35.472 C74.196,35.088 74.472,34.608 74.616,34.008 L73.656,34.008 C73.5,34.44 73.296,34.764 73.032,34.98 C72.72,35.232 72.3,35.364 71.796,35.364 C71.208,35.364 70.74,35.172 70.404,34.788 C70.068,34.404 69.888,33.864 69.84,33.168 L74.736,33.168 C74.712,32.088 74.472,31.236 74.016,30.636 C73.512,29.964 72.756,29.628 71.76,29.628 C70.86,29.628 70.152,29.952 69.624,30.6 C69.096,31.212 68.844,31.98 68.844,32.892 C68.844,33.9 69.108,34.692 69.66,35.292 C70.188,35.868 70.908,36.168 71.796,36.168 Z M73.74,32.424 L69.864,32.424 C69.924,31.812 70.116,31.332 70.452,30.972 C70.788,30.612 71.232,30.432 71.784,30.432 C72.96,30.432 73.62,31.092 73.74,32.424 Z M81.684,36.168 C82.26,36.168 82.776,36.036 83.232,35.784 C83.616,35.568 83.94,35.292 84.18,34.956 L84.18,36 L85.08,36 L85.08,32.016 C85.08,31.296 84.888,30.732 84.528,30.324 C84.096,29.856 83.448,29.628 82.56,29.628 C81.816,29.628 81.228,29.772 80.772,30.06 C80.268,30.372 79.944,30.864 79.812,31.512 L80.76,31.584 C80.856,31.188 81.06,30.888 81.384,30.696 C81.672,30.504 82.044,30.42 82.5,30.42 C83.58,30.42 84.12,30.936 84.12,31.98 L84.12,32.304 L82.632,32.328 C81.696,32.34 80.976,32.52 80.472,32.856 C79.896,33.216 79.62,33.744 79.62,34.452 C79.62,34.956 79.812,35.376 80.196,35.7 C80.568,36.012 81.06,36.168 81.684,36.168 Z M81.888,35.412 C81.504,35.412 81.192,35.316 80.952,35.136 C80.712,34.944 80.604,34.716 80.604,34.428 C80.604,33.528 81.3,33.072 82.692,33.048 L84.12,33.024 L84.12,33.552 C84.12,34.032 83.892,34.464 83.448,34.836 C82.992,35.22 82.476,35.412 81.888,35.412 Z M88.872,36.168 C90.624,36.168 91.5,35.52 91.5,34.248 C91.5,33.708 91.248,33.288 90.756,32.976 C90.432,32.772 89.904,32.58 89.16,32.4 C88.536,32.232 88.104,32.1 87.876,31.992 C87.516,31.812 87.348,31.584 87.348,31.32 C87.348,31.044 87.48,30.828 87.744,30.672 C87.984,30.504 88.32,30.432 88.752,30.432 C89.244,30.432 89.628,30.528 89.892,30.72 C90.132,30.888 90.288,31.176 90.372,31.56 L91.308,31.56 C91.14,30.264 90.3,29.628 88.764,29.628 C88.068,29.628 87.492,29.784 87.06,30.096 C86.592,30.408 86.364,30.816 86.364,31.344 C86.364,31.872 86.592,32.268 87.072,32.556 C87.36,32.748 87.876,32.928 88.608,33.108 C89.28,33.276 89.724,33.408 89.928,33.504 C90.312,33.696 90.516,33.96 90.516,34.308 C90.516,35.004 89.952,35.364 88.848,35.364 C88.32,35.364 87.924,35.268 87.66,35.076 C87.396,34.86 87.216,34.512 87.144,34.02 L86.208,34.02 C86.352,35.448 87.24,36.168 88.872,36.168 Z M100.404,36.168 C101.316,36.168 102.108,35.904 102.768,35.388 C103.476,34.836 103.92,34.056 104.112,33.06 L103.164,33.06 C102.996,33.804 102.648,34.368 102.144,34.752 C101.664,35.112 101.088,35.292 100.404,35.292 C99.396,35.292 98.64,34.956 98.112,34.296 C97.608,33.672 97.368,32.82 97.368,31.752 C97.368,30.684 97.62,29.832 98.124,29.184 C98.664,28.488 99.432,28.14 100.428,28.14 C101.1,28.14 101.664,28.296 102.132,28.62 C102.612,28.956 102.924,29.436 103.044,30.06 L103.992,30.06 C103.872,29.208 103.488,28.524 102.84,28.02 C102.192,27.516 101.388,27.264 100.44,27.264 C99.12,27.264 98.088,27.708 97.368,28.62 C96.708,29.436 96.384,30.48 96.384,31.752 C96.384,33.024 96.696,34.056 97.344,34.848 C98.052,35.724 99.072,36.168 100.404,36.168 Z M108.132,36.168 C109.056,36.168 109.8,35.844 110.364,35.196 C110.88,34.596 111.144,33.828 111.144,32.904 C111.144,31.968 110.88,31.2 110.352,30.588 C109.8,29.94 109.056,29.628 108.132,29.628 C107.196,29.628 106.464,29.94 105.912,30.588 C105.384,31.2 105.12,31.968 105.12,32.904 C105.12,33.828 105.384,34.596 105.912,35.196 C106.464,35.844 107.196,36.168 108.132,36.168 Z M108.132,35.364 C107.472,35.364 106.956,35.112 106.596,34.608 C106.26,34.152 106.104,33.588 106.104,32.904 C106.104,32.208 106.26,31.644 106.596,31.188 C106.956,30.684 107.472,30.432 108.132,30.432 C108.78,30.432 109.296,30.684 109.68,31.188 C110.004,31.644 110.172,32.208 110.172,32.904 C110.172,33.576 110.004,34.152 109.68,34.608 C109.296,35.112 108.78,35.364 108.132,35.364 Z M114.972,36.168 C115.908,36.168 116.604,35.772 117.036,34.98 L117.036,36 L117.936,36 L117.936,27.264 L116.976,27.264 L116.976,30.936 C116.496,30.06 115.812,29.628 114.924,29.628 C114.036,29.628 113.352,29.952 112.848,30.624 C112.38,31.224 112.152,31.968 112.152,32.88 C112.152,33.816 112.38,34.584 112.848,35.184 C113.352,35.832 114.06,36.168 114.972,36.168 Z M115.092,35.376 C114.42,35.376 113.916,35.124 113.58,34.644 C113.28,34.212 113.136,33.624 113.136,32.88 C113.136,32.136 113.28,31.56 113.592,31.14 C113.928,30.66 114.444,30.42 115.128,30.42 C115.68,30.42 116.136,30.636 116.484,31.092 C116.82,31.536 117,32.124 117,32.844 L117,32.964 C117,33.66 116.844,34.224 116.544,34.656 C116.196,35.136 115.716,35.376 115.092,35.376 Z M122.016,36.168 C122.82,36.168 123.48,35.928 123.996,35.472 C124.416,35.088 124.692,34.608 124.836,34.008 L123.876,34.008 C123.72,34.44 123.516,34.764 123.252,34.98 C122.94,35.232 122.52,35.364 122.016,35.364 C121.428,35.364 120.96,35.172 120.624,34.788 C120.288,34.404 120.108,33.864 120.06,33.168 L124.956,33.168 C124.932,32.088 124.692,31.236 124.236,30.636 C123.732,29.964 122.976,29.628 121.98,29.628 C121.08,29.628 120.372,29.952 119.844,30.6 C119.316,31.212 119.064,31.98 119.064,32.892 C119.064,33.9 119.328,34.692 119.88,35.292 C120.408,35.868 121.128,36.168 122.016,36.168 Z M123.96,32.424 L120.084,32.424 C120.144,31.812 120.336,31.332 120.672,30.972 C121.008,30.612 121.452,30.432 122.004,30.432 C123.18,30.432 123.84,31.092 123.96,32.424 Z" id="InfrastructureasCode" fill-opacity="0.859784747"></path>
                <path d="M5.968,18.68 L5.968,7.864 C6.576,6.776 7.072,5.656 7.456,4.472 L6.08,3.832 C5.312,6.264 4.128,8.408 2.512,10.232 L2.992,11.832 C3.536,11.256 4.032,10.68 4.496,10.088 L4.496,18.68 L5.968,18.68 Z M15.984,18.44 C16.608,18.44 17.088,17.24 17.408,14.872 L16.16,14.184 C16.016,15.816 15.872,16.648 15.728,16.648 C15.568,16.648 15.344,16.328 15.024,15.704 C14.704,15.064 14.432,14.056 14.176,12.664 C14.08,12.232 14.016,11.704 13.952,11.096 L17.072,11.096 L17.072,9.64 L13.824,9.64 C13.76,8.632 13.712,7.448 13.696,6.072 C14.752,5.816 15.68,5.56 16.464,5.288 L15.632,4.072 C13.68,4.712 11.04,5.272 7.68,5.784 L7.68,16.088 C7.68,16.472 7.472,16.728 7.072,16.872 L7.456,18.168 C8.64,17.784 9.68,17.4 10.576,17.048 L10.32,15.736 C9.936,15.928 9.552,16.104 9.152,16.28 L9.152,11.096 L12.496,11.096 C12.592,11.896 12.704,12.6 12.848,13.24 C13.232,15 13.728,16.312 14.32,17.16 C14.896,18.008 15.456,18.44 15.984,18.44 Z M12.368,9.64 L9.152,9.64 L9.152,6.936 C10.272,6.76 11.296,6.584 12.24,6.392 C12.256,7.56 12.304,8.648 12.368,9.64 Z M12.608,18.632 L13.744,17.832 C13.264,17 12.592,16.04 11.728,14.952 L10.688,15.688 C11.472,16.76 12.112,17.736 12.608,18.632 Z M23.448,18.68 L23.448,7.864 C24.056,6.808 24.568,5.672 24.968,4.472 L23.544,3.8 C22.776,6.264 21.56,8.424 19.896,10.28 L20.376,11.864 C20.92,11.304 21.432,10.728 21.912,10.136 L21.912,18.68 L23.448,18.68 Z M32.616,18.6 C33.112,18.584 33.512,18.328 33.832,17.848 C34.184,17.208 34.488,16.232 34.712,14.92 L33.384,14.152 C33.192,16.072 32.904,17.032 32.536,17.064 C32.024,17.032 31.464,16.6 30.888,15.768 C30.264,14.888 29.768,13.608 29.4,11.944 C29.272,11.304 29.16,10.536 29.064,9.672 L34.232,8.984 L33.992,7.544 L28.952,8.216 C28.856,6.936 28.808,5.48 28.808,3.848 L27.272,3.848 C27.288,5.544 27.352,7.08 27.448,8.424 L24.008,8.888 L24.248,10.328 L27.576,9.88 C27.688,10.984 27.848,11.912 28.04,12.664 C28.504,14.472 29.208,15.944 30.136,17.064 C30.984,18.088 31.816,18.6 32.616,18.6 Z M31.912,7.32 L32.952,6.296 C32.28,5.496 31.48,4.712 30.52,3.912 L29.544,4.856 C30.568,5.736 31.352,6.552 31.912,7.32 Z M48.272,18.568 C49.744,18.568 50.72,18.264 51.184,17.656 C51.632,17.048 51.872,14.744 51.872,10.744 L50.24,10.744 L51.088,4.424 L43.952,4.424 L43.952,5.864 L49.424,5.864 L48.704,10.744 L45.648,10.744 L46.32,6.904 L44.832,6.808 L43.968,12.168 L50.432,12.168 C50.432,14.52 50.304,15.944 50.048,16.44 C49.824,16.92 49.104,17.16 47.904,17.16 C47.632,17.16 47.152,17.112 46.448,17.032 L46.864,18.504 C47.344,18.536 47.824,18.568 48.272,18.568 Z M40.24,18.12 L40.24,17.032 L41.616,17.032 L41.616,17.816 L43.024,17.816 L43.024,9.384 L40.096,9.384 C40.464,8.376 40.752,7.288 40.96,6.12 L43.312,6.12 L43.312,4.648 L37.76,4.648 L37.76,6.12 L39.52,6.12 C39.136,8.328 38.4,10.312 37.296,12.072 L38.048,13.288 C38.32,12.904 38.576,12.504 38.832,12.088 L38.832,18.12 L40.24,18.12 Z M41.616,15.64 L40.24,15.64 L40.24,10.76 L41.616,10.76 L41.616,15.64 Z M49.552,15.288 L49.552,13.848 L43.6,13.848 L43.6,15.288 L49.552,15.288 Z M68.024,6.168 L68.024,4.696 L56.536,4.696 L56.536,6.168 L68.024,6.168 Z M67.64,18.76 L69,17.816 C68.2,16.216 67.08,14.328 65.624,12.168 L64.408,12.92 C65.016,13.88 65.576,14.824 66.088,15.736 C63.496,16.104 60.872,16.376 58.248,16.536 C59.288,15.352 60.488,13.384 61.864,10.632 L69.448,10.632 L69.448,9.112 L55,9.112 L55,10.632 L60.168,10.632 C58.584,13.8 57.304,15.752 56.328,16.488 C56.248,16.536 56.12,16.584 55.96,16.632 L56.36,18.184 C60.136,17.928 63.624,17.576 66.84,17.128 C67.128,17.672 67.384,18.216 67.64,18.76 Z M80.304,18.632 L80.304,13.096 L86.736,13.096 L86.736,11.64 L80.304,11.64 L80.304,5.976 L86.128,5.976 L86.128,4.488 L73.104,4.488 L73.104,5.976 L78.768,5.976 L78.768,11.64 L72.464,11.64 L72.464,13.096 L78.768,13.096 L78.768,18.632 L80.304,18.632 Z M83.568,10.936 C84.304,9.752 84.912,8.552 85.376,7.32 L83.984,6.664 C83.536,7.832 82.944,9.016 82.192,10.232 L83.568,10.936 Z M75.6,11.016 L77.024,10.312 C76.48,9 75.92,7.816 75.344,6.728 L73.92,7.416 C74.512,8.472 75.072,9.672 75.6,11.016 Z M102.776,11.592 L104.264,10.856 C103.096,8.92 101.864,7.16 100.568,5.56 L99.192,6.216 C99.72,6.888 100.248,7.592 100.76,8.36 C98.216,8.6 95.592,8.776 92.872,8.872 C94.216,7.656 95.528,6.152 96.824,4.36 L95.24,3.816 C93.096,6.952 91.416,8.664 90.2,8.936 L90.488,10.376 C94.584,10.216 98.312,9.992 101.656,9.704 C102.024,10.296 102.392,10.92 102.776,11.592 Z M93.064,18.664 L93.064,18.008 L100.936,18.008 L100.936,18.664 L102.472,18.664 L102.472,11.864 L91.528,11.864 L91.528,18.664 L93.064,18.664 Z M100.936,16.552 L93.064,16.552 L93.064,13.32 L100.936,13.32 L100.936,16.552 Z" id="低代码云平台"></path>
            </g>
        </g>
    </g>
</svg>