<svg id="LOGOS" xmlns="http://www.w3.org/2000/svg" viewBox="0 0 162.34 162.34"><defs><style>.cls-1{fill:#8e134a;}.cls-1,.cls-2{fill-rule:evenodd;}.cls-2,.cls-3{fill:#ca2171;}</style></defs><path class="cls-1" d="M79.06,93.45A12.43,12.43,0,1,1,91.46,81a12.39,12.39,0,0,1-12.4,12.44"/><path class="cls-2" d="M103.24,86.76A5.73,5.73,0,1,1,109,81a5.71,5.71,0,0,1-5.73,5.73"/><path class="cls-2" d="M124.21,92.16h0a5.54,5.54,0,1,1,.11-.45c0,.14,0,.28-.11.45"/><path class="cls-2" d="M120.15,77.4a5.74,5.74,0,1,1,4.26-6.9,6.11,6.11,0,0,1,0,2.25,5.51,5.51,0,0,1-4.31,4.65"/><path class="cls-2" d="M140.53,91.52a5.73,5.73,0,1,1-4.65-6.63A5.76,5.76,0,0,1,140.65,91a1.46,1.46,0,0,0-.12.51"/><path class="cls-2" d="M135.88,77.15a5.72,5.72,0,1,1,4.71-6.58,6.58,6.58,0,0,1,0,1.47,5.69,5.69,0,0,1-4.76,5.11"/><path class="cls-2" d="M131.87,111.37h0a5.81,5.81,0,1,1,.71-2.35,5,5,0,0,1-.71,2.35"/><path class="cls-2" d="M129.81,58.71A5.75,5.75,0,1,1,132,50.88a5.37,5.37,0,0,1,.71,3.32,5.74,5.74,0,0,1-2.89,4.51"/><path class="cls-3" d="M79.27,138.77a57.6,57.6,0,1,1,0-115.2,57,57,0,0,1,35,11.83l-7,9.19A46,46,0,1,0,79.27,127.2a45.62,45.62,0,0,0,28-9.45l7,9.19A57.09,57.09,0,0,1,79.27,138.77Z"/></svg>