<svg id="LOGOS" xmlns="http://www.w3.org/2000/svg" viewBox="0 0 162.34 162.34"><defs><style>.cls-1{fill:#009a69;}.cls-2{fill:#00bc7f;}</style></defs><polygon class="cls-1" points="103.78 67.85 103.78 86.96 90.47 94.64 81.17 88.88 81.17 138.77 81.43 138.77 131.57 109.97 131.57 52.44 130.63 52.44 103.78 67.85"/><polygon class="cls-2" points="80.75 23.57 30.77 52.45 64.49 72.26 71.32 68.11 87.89 77.35 87.89 58.14 103.78 48.6 103.78 67.85 131.57 52.44 131.57 52.37 80.75 23.57"/><polygon class="cls-2" points="74.45 85.05 74.45 104.23 59.33 113.83 59.33 75.44 65.06 71.91 31.07 52.45 30.77 52.45 30.77 109.97 81.17 138.77 81.17 88.88 74.45 85.05"/></svg>