<?xml version="1.0" encoding="UTF-8"?>
<svg width="616px" height="81px" viewBox="0 0 616 81" version="1.1" xmlns="http://www.w3.org/2000/svg" xmlns:xlink="http://www.w3.org/1999/xlink">
    <title>oracle</title>
    <g id="Page-1" stroke="none" stroke-width="1" fill="none" fill-rule="evenodd">
        <g id="oracle" fill="#F80000" fill-rule="nonzero">
            <path d="M265.99719,52.11669 L306.6491,52.11669 L285.15382,17.534 L245.70257,80.06102 L227.74762,80.06102 L275.73349,4.95274 C277.81988,1.91805 281.29702,0.08464 285.15382,0.08464 C288.8837,0.08464 292.3609,1.85486 294.3841,4.8263 L342.5596,80.06102 L324.6046,80.06102 L316.1327,66.08886 L274.97467,66.08886 L265.99719,52.11669 Z M452.5035,66.08886 L452.5035,0.84331 L437.2669,0.84331 L437.2669,72.47435 C437.2669,74.43425 438.0257,76.3309 439.4797,77.785 C440.9336,79.23915 442.8936,80.06102 445.0432,80.06102 L514.5248,80.06102 L523.5023,66.08886 L452.5035,66.08886 Z M200.43553,54.39271 C215.22981,54.39271 227.24208,42.44369 227.24208,27.64961 C227.24208,12.85558 215.22981,0.84331 200.43553,0.84331 L133.77987,0.84331 L133.77987,80.06102 L149.01043,80.06102 L149.01043,14.81548 L199.42393,14.81548 C206.50511,14.81548 212.19502,20.56868 212.19502,27.64961 C212.19502,34.73053 206.50511,40.48379 199.42393,40.48379 L156.47077,40.42054 L201.95267,80.06102 L224.0809,80.06102 L193.48125,54.39271 L200.43553,54.39271 Z M40.02141,80.06102 C18.15252,80.06102 0.40586,62.35874 0.40586,40.48379 C0.40586,18.60879 18.15252,0.84331 40.02141,0.84331 L86.06598,0.84331 C107.94093,0.84331 125.67496,18.60879 125.67496,40.48379 C125.67496,62.35874 107.94093,80.06102 86.06598,80.06102 L40.02141,80.06102 Z M85.04175,66.08886 C99.21016,66.08886 110.68503,54.64558 110.68503,40.48379 C110.68503,26.32194 99.21016,14.81548 85.04175,14.81548 L41.03907,14.81548 C26.87723,14.81548 15.39578,26.32194 15.39578,40.48379 C15.39578,54.64558 26.87723,66.08886 41.03907,66.08886 L85.04175,66.08886 Z M374.3604,80.06102 C352.4854,80.06102 334.7201,62.35874 334.7201,40.48379 C334.7201,18.60879 352.4854,0.84331 374.3604,0.84331 L429.0478,0.84331 L420.1335,14.81548 L375.372,14.81548 C361.2101,14.81548 349.7039,26.32194 349.7039,40.48379 C349.7039,54.64558 361.2101,66.08886 375.372,66.08886 L430.3121,66.08886 L421.3347,80.06102 L374.3604,80.06102 Z M560.6771,66.08886 C548.9808,66.08886 539.0549,58.24926 536.0201,47.43822 L601.1394,47.43822 L610.1169,33.46606 L536.0201,33.46606 C539.0549,22.71826 548.9808,14.81548 560.6771,14.81548 L605.3754,14.81548 L614.4161,0.84331 L559.6655,0.84331 C537.7905,0.84331 520.0252,18.60879 520.0252,40.48379 C520.0252,62.35874 537.7905,80.06102 559.6655,80.06102 L606.6398,80.06102 L615.6172,66.08886 L560.6771,66.08886" id="path16197"></path>
        </g>
    </g>
</svg>