<?xml version="1.0" standalone="no"?><!DOCTYPE svg PUBLIC "-//W3C//DTD SVG 1.1//EN" "http://www.w3.org/Graphics/SVG/1.1/DTD/svg11.dtd"><svg t="1626944250039" class="icon" viewBox="0 0 1033 1024" version="1.1" xmlns="http://www.w3.org/2000/svg" p-id="2733" width="105.9228515625" height="105" xmlns:xlink="http://www.w3.org/1999/xlink"><defs><style type="text/css">@font-face { font-family: feedback-iconfont; src: url("//at.alicdn.com/t/font_1031158_1uhr8ri0pk5.eot?#iefix") format("embedded-opentype"), url("//at.alicdn.com/t/font_1031158_1uhr8ri0pk5.woff2") format("woff2"), url("//at.alicdn.com/t/font_1031158_1uhr8ri0pk5.woff") format("woff"), url("//at.alicdn.com/t/font_1031158_1uhr8ri0pk5.ttf") format("truetype"), url("//at.alicdn.com/t/font_1031158_1uhr8ri0pk5.svg#iconfont") format("svg"); }
</style></defs><path d="M886.20861 111.996343H150.215924a31.968305 31.968305 0 0 0-32.007314 32.007314v735.992686a31.968305 31.968305 0 0 0 32.007314 32.007314h735.992686a31.968305 31.968305 0 0 0 32.007314-32.007314V144.003657a31.968305 31.968305 0 0 0-32.007314-32.007314z m-500.004572 584.001828a39.984762 39.984762 0 0 1-39.984762-39.994514 39.984762 39.984762 0 0 1 39.984762-40.004267 39.984762 39.984762 0 0 1 40.004267 40.004267 39.984762 39.984762 0 0 1-39.994515 39.994514z m0-143.993904a39.984762 39.984762 0 0 1-39.984762-40.004267 39.984762 39.984762 0 0 1 39.984762-40.004267 39.984762 39.984762 0 0 1 40.004267 40.004267 39.984762 39.984762 0 0 1-39.994515 40.004267z m0-144.003657a39.984762 39.984762 0 0 1-39.984762-40.004267 39.984762 39.984762 0 0 1 39.984762-39.994514 39.984762 39.984762 0 0 1 40.004267 39.994514 39.984762 39.984762 0 0 1-39.994515 40.004267z m304.010972 271.993904c0 4.408076-3.608381 7.996952-7.996953 7.996953H498.200381a8.02621 8.02621 0 0 1-7.996952-7.996953v-47.991466c0-4.398324 3.598629-7.996952 7.996952-7.996953h183.998171c4.408076 0 7.996952 3.598629 7.996953 7.996953v48.001219z m0-143.993904c0 4.398324-3.608381 7.996952-7.996953 7.996952H498.200381a8.02621 8.02621 0 0 1-7.996952-7.996952v-48.00122c0-4.398324 3.598629-7.996952 7.996952-7.996952h183.998171c4.408076 0 7.996952 3.598629 7.996953 7.996952v48.00122z m0-144.003658c0 4.398324-3.608381 7.996952-7.996953 7.996953H498.200381a8.02621 8.02621 0 0 1-7.996952-7.996953v-48.001219c0-4.388571 3.598629-7.996952 7.996952-7.996952h183.998171c4.408076 0 7.996952 3.608381 7.996953 7.996952v48.001219z" p-id="2734" fill="#E6F0F0"></path></svg>