<?xml version="1.0" standalone="no"?><!DOCTYPE svg PUBLIC "-//W3C//DTD SVG 1.1//EN" "http://www.w3.org/Graphics/SVG/1.1/DTD/svg11.dtd"><svg t="1626944271870" class="icon" viewBox="0 0 1024 1024" version="1.1" xmlns="http://www.w3.org/2000/svg" p-id="2957" xmlns:xlink="http://www.w3.org/1999/xlink" width="105" height="105"><defs><style type="text/css">@font-face { font-family: feedback-iconfont; src: url("//at.alicdn.com/t/font_1031158_1uhr8ri0pk5.eot?#iefix") format("embedded-opentype"), url("//at.alicdn.com/t/font_1031158_1uhr8ri0pk5.woff2") format("woff2"), url("//at.alicdn.com/t/font_1031158_1uhr8ri0pk5.woff") format("woff"), url("//at.alicdn.com/t/font_1031158_1uhr8ri0pk5.ttf") format("truetype"), url("//at.alicdn.com/t/font_1031158_1uhr8ri0pk5.svg#iconfont") format("svg"); }
</style></defs><path d="M512.492679 396.152755c-29.618717 0-57.35366 11.495849-78.34566 32.487849-20.905057 21.00166-32.497509 48.736604-32.49751 78.34566 0 29.628377 11.592453 57.363321 32.487849 78.364981C455.139019 606.246642 482.873962 617.839094 512.492679 617.839094c29.618717 0 57.35366-11.592453 78.355321-32.487849 20.905057-21.00166 32.487849-48.736604 32.487849-78.35532 0-29.618717-11.592453-57.35366-32.487849-78.355321a109.915774 109.915774 0 0 0-78.34566-32.487849zM920.904453 629.431547l-64.782491-55.373283c3.072-18.818415 4.656302-38.042566 4.656302-57.160453 0-19.117887-1.584302-38.428981-4.656302-57.150792l64.782491-55.373283a31.724679 31.724679 0 0 0 9.216-34.873962l-0.898415-2.569661a438.329962 438.329962 0 0 0-78.848-136.404528l-1.77751-2.076981a31.821283 31.821283 0 0 0-34.777358-9.409208l-80.432302 28.623698a345.889811 345.889811 0 0 0-98.651774-56.957585l-15.553207-84.093584a31.744 31.744 0 0 0-25.561359-25.464755l-2.675924-0.483019a446.386717 446.386717 0 0 0-157.299925 0l-2.675924 0.483019a31.744 31.744 0 0 0-25.551698 25.464755l-15.649812 84.48966a350.101736 350.101736 0 0 0-97.965887 56.764377l-81.031245-28.826566a31.695698 31.695698 0 0 0-34.777358 9.409208l-1.77751 2.076981a441.730415 441.730415 0 0 0-78.848 136.404528l-0.888754 2.569661a31.811623 31.811623 0 0 0 9.206339 34.873962l65.574642 55.962566a348.208302 348.208302 0 0 0-4.550038 56.464906c0 19.021283 1.487698 38.042566 4.550038 56.464905l-65.371774 55.962566a31.724679 31.724679 0 0 0-9.216 34.873963l0.898415 2.56966a439.450566 439.450566 0 0 0 78.848 136.404528l1.77751 2.076981a31.821283 31.821283 0 0 0 34.777358 9.409208l81.021585-28.826566c29.522113 24.276528 62.406038 43.491019 97.965887 56.764377l15.649811 84.489661a31.744 31.744 0 0 0 25.561359 25.464754l2.675924 0.49268a444.039245 444.039245 0 0 0 157.299925 0l2.675924-0.49268a31.744 31.744 0 0 0 25.551698-25.464754l15.553208-84.093585A348.227623 348.227623 0 0 0 733.589736 785.92966l80.432302 28.623698a31.695698 31.695698 0 0 0 34.777358-9.409207l1.77751-2.076981a441.730415 441.730415 0 0 0 78.848-136.404528l0.888754-2.569661a31.975849 31.975849 0 0 0-9.409207-34.680755z m-408.411774 51.70234c-96.178717 0-174.137962-77.959245-174.137962-174.137962 0-96.188377 77.959245-174.137962 174.137962-174.137963 96.188377 0 174.147623 77.959245 174.147623 174.137963s-77.959245 174.137962-174.147623 174.137962z" p-id="2958" fill="#E6F0F0"></path></svg>