<?xml version="1.0" standalone="no"?><!DOCTYPE svg PUBLIC "-//W3C//DTD SVG 1.1//EN" "http://www.w3.org/Graphics/SVG/1.1/DTD/svg11.dtd"><svg t="1626944896060" class="icon" viewBox="0 0 1024 1024" version="1.1" xmlns="http://www.w3.org/2000/svg" p-id="3149" xmlns:xlink="http://www.w3.org/1999/xlink" width="105" height="105"><defs><style type="text/css">@font-face { font-family: feedback-iconfont; src: url("//at.alicdn.com/t/font_1031158_1uhr8ri0pk5.eot?#iefix") format("embedded-opentype"), url("//at.alicdn.com/t/font_1031158_1uhr8ri0pk5.woff2") format("woff2"), url("//at.alicdn.com/t/font_1031158_1uhr8ri0pk5.woff") format("woff"), url("//at.alicdn.com/t/font_1031158_1uhr8ri0pk5.ttf") format("truetype"), url("//at.alicdn.com/t/font_1031158_1uhr8ri0pk5.svg#iconfont") format("svg"); }
</style></defs><path d="M372.999314 411.004343c-28.496457 0-51.697371 23.298438-51.697371 51.999695 0 28.691505 23.200914 51.999695 51.697371 51.999695s51.697371-23.30819 51.697372-51.999695c0-28.701257-23.200914-51.999695-51.687619-51.999695z m555.008-251.006781H95.992686a31.968305 31.968305 0 0 0-31.997562 32.007314v639.990248a31.968305 31.968305 0 0 0 31.987809 32.007314h832.004877a31.968305 31.968305 0 0 0 31.997561-31.997562V191.985371a31.968305 31.968305 0 0 0-31.987809-31.987809z m-320.004876 259.998476c0-4.388571 0.994743-7.996952 2.301562-7.996952h123.396876c1.297067 0 2.301562 3.608381 2.301562 7.996952v48.001219c0 4.398324-1.004495 7.996952-2.301562 7.996953H610.304c-1.306819 0-2.301562-3.598629-2.301562-7.996953v-48.001219zM521.99619 673.01181h-43.895466a7.977448 7.977448 0 0 1-7.899429-7.509334c-3.803429-50.488076-46.001981-90.492343-97.201981-90.492343-51.2 0-93.398552 40.004267-97.201981 90.502096a7.977448 7.977448 0 0 1-7.899428 7.499581H224.01219a7.996952 7.996952 0 0 1-7.996952-8.406553 158.183619 158.183619 0 0 1 74.595962-126.098286 111.801295 111.801295 0 0 1-29.101105-75.493181c0-61.908114 49.902933-112.006095 111.401448-112.006095S484.303238 401.095924 484.303238 463.004038c0 29.091352-11.000686 55.491048-29.101105 75.493181a158.086095 158.086095 0 0 1 74.605715 126.098286 7.723886 7.723886 0 0 1-7.801905 8.406552z m278.908343-53.004191H615.102171c-3.900952 0-7.099733-3.598629-7.099733-7.996952v-48.001219c0-4.398324 3.198781-7.996952 7.099733-7.996953h185.695086c3.900952 0 7.099733 3.598629 7.099733 7.996953v48.001219h0.097524c0 4.398324-3.198781 7.996952-7.089981 7.996952z" p-id="3150" fill="#E6F0F0"></path></svg>